<svg xmlns="http://www.w3.org/2000/svg" width="1392" height="752" viewBox="0 0 1392 752" version="1.1">
	<rect x="0" y="0" width="100%" height="100%" fill="#fff" />
	<path fill-opacity="0.169" d="M 0.003 376 L -0 752 123.049 752 L 246.099 752 245.481 745.750 C 243.682 727.553, 240.881 707.822, 239.409 702.980 C 234.438 686.633, 231.241 680.493, 222.460 670.442 C 216.014 663.063, 209.254 659.447, 192.500 654.414 C 169.979 647.650, 155.780 641.439, 144 633.201 C 140.425 630.701, 135.659 627.399, 133.409 625.864 C 127.440 621.792, 106.150 601.197, 103.392 596.829 C 100.855 592.810, 101.068 590.431, 104.049 589.484 C 106.417 588.733, 118.738 590.420, 131 593.174 C 136.225 594.348, 142.300 595.310, 144.500 595.313 C 146.700 595.316, 147.630 595.521, 146.566 595.768 C 145.333 596.055, 147.657 597.266, 152.977 599.109 C 174.603 606.603, 187.095 615.465, 209.458 639.180 C 216.035 646.154, 221.842 651.598, 222.363 651.276 C 222.887 650.952, 222.979 651.225, 222.569 651.888 C 222.133 652.594, 223.348 654.939, 225.526 657.598 C 227.560 660.079, 229.009 662.324, 228.747 662.586 C 228.485 662.848, 227.498 661.883, 226.554 660.442 C 225.610 659.001, 220.158 652.513, 214.439 646.023 C 186.290 614.084, 167.860 602.474, 132.877 594.642 C 116.357 590.944, 104.902 589.741, 103.090 591.513 C 101.880 592.696, 102.082 593.431, 104.517 596.696 C 108.591 602.157, 122.329 615.611, 130.500 622.141 C 148.874 636.823, 165.393 645.190, 191.324 652.947 C 198.582 655.119, 205.921 657.484, 207.632 658.203 C 222.338 664.387, 235.942 683.331, 240.880 704.500 C 243.004 713.609, 245.364 730.086, 246.573 744.250 L 247.235 752 252.373 752 L 257.511 752 256.893 743.750 C 256.553 739.212, 255.679 728.027, 254.951 718.893 C 253.751 703.852, 253.792 701.258, 255.379 691.393 C 257.388 678.910, 262.730 661.950, 266.982 654.558 C 270.313 648.767, 277.551 641.117, 283.750 636.838 C 289.924 632.576, 288.961 633.871, 281.526 639.829 C 277.965 642.682, 273.281 647.376, 271.116 650.259 C 265.788 657.354, 260.581 671.206, 257.427 686.675 C 255.164 697.768, 254.895 700.986, 255.433 710.500 C 256.018 720.844, 258.211 746.708, 258.888 751.250 C 258.950 751.662, 514.038 751.887, 825.750 751.750 L 1392.500 751.500 1392.748 375.750 L 1392.997 0 909.508 0 L 426.020 0 427.760 2.112 C 428.717 3.273, 429.950 4.735, 430.500 5.362 C 434.464 9.874, 440.371 18.788, 443.450 24.900 C 447.232 32.410, 451.287 44, 450.133 44 C 449.771 44, 448.658 41.146, 447.659 37.659 C 445.171 28.970, 438.765 17.586, 431 8.050 L 424.500 0.069 212.253 0.034 L 0.006 0 0.003 376 M 0.483 114.500 C 0.483 177.200, 0.603 202.997, 0.750 171.827 C 0.896 140.657, 0.896 89.357, 0.750 57.827 C 0.603 26.297, 0.483 51.800, 0.483 114.500 M 910.704 44.892 C 887.077 57.321, 867.773 81.017, 863.420 102.934 C 861.589 112.148, 861.880 132.783, 863.921 138.500 L 864.992 141.500 864.453 138.500 C 864.157 136.850, 863.666 129.875, 863.362 123 C 862.497 103.422, 865.985 91.195, 876.738 76.107 C 884.983 64.537, 900.411 51.210, 912.321 45.369 C 917.181 42.985, 918.081 42.823, 919.572 44.060 C 921.053 45.289, 921.197 46.842, 920.678 55.986 C 919.388 78.733, 914.094 90.351, 892.422 118 C 882.585 130.551, 877.790 142.394, 878.131 153.299 C 878.234 156.587, 878.434 156.035, 879.048 150.760 C 880.674 136.797, 883.824 130.214, 896.676 113.917 C 901.629 107.638, 907.349 99.870, 909.388 96.656 C 917.202 84.338, 922 67.124, 922 51.404 C 922 45.177, 921.708 43.914, 920.066 43.035 C 917.325 41.569, 916.840 41.665, 910.704 44.892 M 798.195 95.750 C 795.909 103.392, 795.707 110.413, 797.525 119.089 C 799.861 130.239, 804.801 139.514, 813.185 148.491 C 818.804 154.508, 821.839 156.759, 829.938 160.919 C 835.378 163.714, 840.205 165.985, 840.665 165.966 C 841.124 165.948, 836.835 163.517, 831.133 160.563 C 815.019 152.218, 805.556 141.444, 800.336 125.500 C 796.034 112.363, 797.021 93, 801.994 93 C 805.035 93, 818.757 102.824, 826.159 110.299 C 835.859 120.095, 844.524 131.985, 851.209 144.668 C 860.319 161.952, 864.277 167.463, 874.431 177 C 878.039 180.389, 878.118 180.412, 876.918 177.750 C 876.237 176.238, 875.104 175, 874.402 175 C 873.386 175, 867.322 168.354, 861.161 160.490 C 860.725 159.934, 857.363 153.952, 853.688 147.197 C 842.590 126.792, 839.597 122.674, 825.755 108.756 C 816.073 99.021, 806.121 92, 802.003 92 C 799.765 92, 799.129 92.626, 798.195 95.750 M 658.618 99.206 C 635.977 108.889, 608.334 110.041, 578.917 102.527 C 577.010 102.040, 576.333 102.252, 576.333 103.338 C 576.333 104.147, 576.855 104.609, 577.491 104.365 C 578.128 104.120, 584.016 104.932, 590.575 106.168 C 605.835 109.044, 625.563 109.234, 638 106.625 C 645.069 105.142, 664.462 98.722, 665.917 97.383 C 667.477 95.948, 664.499 96.691, 658.618 99.206 M 941.334 109.691 C 924.448 128.854, 916.323 148.739, 915.782 172.218 C 915.587 180.695, 917.563 196.771, 918.664 195.669 C 918.918 195.415, 918.615 192.393, 917.992 188.954 C 916.323 179.750, 916.738 164.817, 918.962 154.080 C 922.121 138.830, 931.645 121.362, 944.025 108.113 C 946.793 105.149, 948.869 102.535, 948.637 102.303 C 948.405 102.071, 945.118 105.396, 941.334 109.691 M 958.507 119.500 C 958.782 121.150, 959.287 127.450, 959.630 133.500 C 960.731 152.954, 956.824 168.423, 946.683 184.762 C 936.358 201.399, 935.659 203.139, 935.393 212.867 L 935.156 221.500 935.934 213 C 936.852 202.957, 938.103 199.721, 945.044 189.434 C 951.035 180.557, 954.792 172.670, 958.114 162 C 960.167 155.408, 960.442 152.564, 960.388 138.500 C 960.352 128.907, 959.863 121.299, 959.168 119.500 L 958.008 116.500 958.507 119.500 M 632 133.623 C 609.216 134.888, 574.562 139.338, 561.500 142.675 C 558.200 143.518, 554.600 144.335, 553.500 144.491 C 546.072 145.539, 529.654 150.308, 510 157.127 C 490.304 163.959, 458.468 178.908, 444.213 188.017 C 430.192 196.977, 419.052 205.243, 406.807 215.774 C 390.965 229.398, 376.375 245.564, 365.537 261.500 C 362.919 265.350, 360.343 268.376, 359.814 268.225 C 359.284 268.074, 359.125 268.393, 359.460 268.935 C 360.071 269.923, 358.500 273.328, 356.342 275.691 C 355.255 276.881, 346.574 294.120, 344.855 298.500 C 342.061 305.621, 339.502 313.509, 337.880 320 C 331.083 347.196, 331.516 343.902, 331.513 368.500 C 331.510 389.870, 331.704 392.386, 334.251 404 C 335.758 410.875, 338.672 421.675, 340.727 428 C 344.755 440.403, 357.018 465.651, 358.824 465.262 C 359.431 465.131, 359.706 465.601, 359.436 466.307 C 359.032 467.360, 371.761 487.312, 373.914 489 C 374.265 489.275, 376.109 491.525, 378.011 494 C 379.914 496.475, 382.044 499.099, 382.745 499.831 C 383.445 500.562, 383.756 501.586, 383.435 502.105 C 383.114 502.625, 383.289 502.926, 383.825 502.775 C 384.360 502.624, 390.581 507.961, 397.649 514.636 C 404.717 521.311, 412.750 528.467, 415.500 530.538 C 418.250 532.609, 421.898 535.473, 423.607 536.902 C 429.771 542.056, 430.951 542.923, 433.795 544.394 C 435.384 545.216, 440.121 548.164, 444.322 550.946 C 453.790 557.216, 479.829 570.520, 494.500 576.584 C 540.511 595.600, 588.591 605.725, 642 607.643 C 690.272 609.376, 753.646 598.327, 797.516 580.528 C 818.883 571.859, 827.226 567.780, 825.757 566.719 C 824.873 566.081, 825.012 565.976, 826.226 566.365 C 828.671 567.149, 846.696 557.555, 860.500 548.122 C 869.770 541.787, 885.590 530.030, 888.500 527.313 C 892.331 523.736, 896.732 521.064, 897.613 521.780 C 898.101 522.176, 898.176 522.101, 897.779 521.612 C 897.382 521.124, 902.332 515.232, 908.779 508.518 C 915.226 501.804, 923.047 492.979, 926.160 488.906 C 937.254 474.389, 949.181 453.910, 954.934 439.500 C 955.373 438.400, 956.243 436.375, 956.868 435 C 963.438 420.529, 969.005 390.802, 968.992 370.257 C 968.973 340.511, 962.942 314.954, 949.363 287.072 C 946.302 280.787, 943.023 274.487, 942.078 273.072 C 941.132 271.658, 936.869 265.212, 932.604 258.750 C 928.340 252.288, 924.510 247, 924.094 247 C 923.678 247, 922.744 245.890, 922.018 244.534 C 921.292 243.178, 920.349 242.284, 919.921 242.549 C 919.494 242.813, 918.839 242.069, 918.467 240.895 C 917.311 237.254, 895.170 216.402, 881 205.609 C 855.398 186.110, 826.116 170.332, 792 157.654 C 759.942 145.741, 721.589 137.550, 684 134.590 C 674.606 133.850, 639.626 133.200, 632 133.623 M 1172.254 179.971 C 1161.996 184.627, 1148.331 197.003, 1137.991 211 C 1132.034 219.064, 1122.758 236.602, 1121.594 242 C 1121.297 243.375, 1121.801 242.700, 1122.713 240.500 C 1130.148 222.560, 1140.258 207.740, 1153.946 194.714 C 1167.052 182.242, 1176.988 177.256, 1181.414 180.929 C 1183.908 182.999, 1185.227 188.684, 1184.513 194.285 C 1181.613 217.025, 1174.892 230.089, 1157.354 247.074 C 1152.484 251.790, 1145.912 257.582, 1142.750 259.945 C 1135.104 265.657, 1135.392 266.252, 1143.170 260.814 C 1152.300 254.430, 1167.811 238.608, 1173.782 229.586 C 1179.490 220.963, 1182.253 213.327, 1184.612 199.659 C 1186.521 188.599, 1185.837 183.882, 1181.838 180.517 C 1178.270 177.515, 1177.733 177.484, 1172.254 179.971 M 318 183.926 C 303.115 187.015, 289.945 191.610, 280 197.184 C 265.362 205.388, 252.701 219.160, 249.564 230.291 C 247.724 236.822, 246.531 243.688, 247.371 242.913 C 247.721 242.590, 248.496 239.665, 249.092 236.413 C 252.483 217.916, 269.965 200.800, 295.258 191.213 C 300.341 189.286, 311.700 186.236, 320.500 184.436 C 329.300 182.635, 335.375 181.154, 334 181.143 C 332.625 181.133, 325.425 182.385, 318 183.926 M 1075.201 207.572 C 1072.072 209.764, 1065.804 218.463, 1062.174 225.655 C 1056.791 236.320, 1054.853 243.636, 1054.271 255.499 C 1053.605 269.092, 1055.807 278.810, 1062.092 290.012 C 1074.425 311.992, 1073.707 309.965, 1075.547 328 L 1076.924 341.500 1076.491 330 C 1075.948 315.600, 1073.715 307.420, 1067.685 297.745 C 1057.417 281.271, 1054.368 270.632, 1055.309 254.570 C 1056.257 238.400, 1062.788 222.367, 1072.548 212.250 C 1078.249 206.340, 1080.854 205.728, 1083.887 209.583 C 1089.949 217.290, 1093.410 235.066, 1092.729 255 C 1092.247 269.080, 1092.098 269.891, 1087.565 282.990 C 1082.162 298.599, 1081.536 302.291, 1082.900 310.500 L 1083.896 316.500 1083.384 308.971 C 1082.837 300.947, 1083.774 296.664, 1089.951 278.947 C 1093.667 268.291, 1095.005 256.489, 1093.971 243.500 C 1093 231.306, 1092.494 228.604, 1089.357 218.840 C 1085.635 207.255, 1080.962 203.536, 1075.201 207.572 M 0.493 490.500 C 0.493 634.600, 0.608 693.401, 0.750 621.169 C 0.892 548.938, 0.892 431.038, 0.750 359.169 C 0.608 287.301, 0.493 346.400, 0.493 490.500 M 1202.500 253.580 C 1195.432 255.245, 1181.915 259.907, 1180.537 261.154 C 1180.008 261.633, 1182.933 260.872, 1187.037 259.462 C 1196.689 256.147, 1209.627 253.016, 1213.715 253.007 C 1223.446 252.986, 1217.752 266.275, 1201.243 282.119 C 1181.473 301.090, 1156.176 316.829, 1131.500 325.509 C 1127.100 327.057, 1123.050 328.767, 1122.500 329.309 C 1121.841 329.958, 1122.183 330.038, 1123.500 329.544 C 1124.600 329.132, 1127.750 327.995, 1130.500 327.017 C 1147.564 320.950, 1157.971 315.670, 1174.476 304.705 C 1197.100 289.674, 1217.268 269.161, 1219.525 258.884 C 1220.965 252.331, 1215.296 250.566, 1202.500 253.580 M 1154.022 274.136 C 1141.159 282.117, 1122.818 299.225, 1112.048 313.291 C 1105.204 322.228, 1098.987 330.072, 1094.991 334.811 C 1093.919 336.082, 1092.775 337.657, 1092.449 338.311 C 1091.026 341.159, 1101.892 328.391, 1111.438 316 C 1125.698 297.489, 1138.417 285.464, 1155 274.816 C 1159.125 272.167, 1162.050 270.027, 1161.500 270.059 C 1160.950 270.091, 1157.585 271.926, 1154.022 274.136 M 194.447 305.408 C 186.903 308.694, 175.928 325.217, 172.466 338.500 C 170.767 345.021, 170.335 364.895, 171.708 373.422 C 172.239 376.723, 172.500 371.949, 172.500 358.922 C 172.500 340.001, 172.572 339.320, 175.290 332.526 C 180.032 320.670, 188.018 310.110, 194.957 306.522 C 199.024 304.419, 201.532 305.807, 202.548 310.723 C 202.996 312.890, 203.499 313.771, 203.730 312.790 C 204.324 310.260, 201.034 303.994, 199.136 304.039 C 198.236 304.061, 196.126 304.677, 194.447 305.408 M 1178 338.138 C 1137.810 346.387, 1111.756 361.323, 1077.320 395.854 C 1070.544 402.649, 1065.002 407.824, 1065.003 407.354 C 1065.009 405.879, 1070.521 393.011, 1076.933 379.500 C 1080.327 372.350, 1082.645 366.958, 1082.085 367.517 C 1080.437 369.162, 1065.356 402.040, 1063.725 407.542 L 1062.231 412.584 1074.366 400.176 C 1100.178 373.783, 1122.975 357.386, 1146.671 348.168 C 1166.934 340.287, 1192.642 336.016, 1195.268 340.095 C 1200.117 347.628, 1173.540 371.552, 1145.264 385.106 C 1135.492 389.791, 1122.226 394.569, 1097 402.490 C 1077.733 408.540, 1064.078 418.597, 1057.099 431.876 C 1055.257 435.382, 1052.849 439.151, 1051.749 440.251 C 1050.650 441.350, 1050.369 442.047, 1051.125 441.798 C 1052.549 441.330, 1053.749 439.625, 1060.500 428.474 C 1063.380 423.718, 1066.461 420.374, 1071.500 416.537 C 1081.205 409.147, 1085.840 407.043, 1107.579 400.159 C 1131.037 392.731, 1137.219 390.416, 1148 385.026 C 1172.552 372.750, 1197 351.335, 1197 342.105 C 1197 340.128, 1196.326 338.710, 1195.066 338.035 C 1192.759 336.801, 1184.265 336.852, 1178 338.138 M 231.601 342.706 C 221.881 348.459, 207.493 361.971, 201.620 370.860 C 192.101 385.269, 185.910 401.259, 186.127 410.878 L 186.254 416.500 187.056 410.347 C 190.368 384.932, 206.016 360.685, 228.763 345.719 C 239.714 338.514, 244.938 337.147, 246.976 340.954 C 248.364 343.549, 246.478 348.954, 241.116 357.741 C 234.896 367.936, 227.712 376.235, 215 387.908 C 208.675 393.716, 202.032 400.276, 200.238 402.484 C 196.598 406.966, 193 417.190, 193 423.054 C 193 427.274, 197.133 441.044, 199.587 445 C 200.575 446.591, 200.870 446.773, 200.400 445.500 C 193.480 426.756, 192.910 423.032, 195.584 414.028 C 197.874 406.317, 200.828 402.196, 210.024 393.882 C 228.699 376.999, 238.736 365.090, 245.679 351.578 C 252.598 338.113, 246.187 334.072, 231.601 342.706 M 118.704 341.425 C 111.844 346.628, 120.119 365.857, 135.937 381.473 C 139.821 385.308, 143 388.158, 143 387.806 C 143 387.454, 140.109 384.390, 136.575 380.997 C 121.297 366.326, 112.893 346.226, 120.136 341.681 C 123.315 339.686, 132.653 345.474, 143.093 355.911 C 151.683 364.498, 157.110 371.785, 169.691 391.622 C 170.346 392.655, 170.909 392.987, 170.941 392.359 C 171.034 390.560, 159.445 373.413, 151.242 363.212 C 142.882 352.817, 134.952 345.853, 127.500 342.362 C 121.720 339.654, 121.124 339.590, 118.704 341.425 M 1075 344.606 C 1075 350.890, 1070.043 366.044, 1058.516 395 C 1046.485 425.220, 1043 434.857, 1043 437.902 C 1043 440.802, 1044.564 442.096, 1047.832 441.900 C 1048.769 441.844, 1048.405 441.498, 1047 441.109 C 1042.076 439.748, 1042.376 438.620, 1058.315 398.500 C 1070.376 368.141, 1074.864 355.008, 1075.657 347.750 C 1076.002 344.587, 1075.996 342, 1075.642 342 C 1075.289 342, 1075 343.173, 1075 344.606 M 236.463 399.049 C 230.840 401.199, 222.455 414.658, 219.061 426.980 C 215.880 438.525, 216.884 456.925, 221.572 473 L 222.301 475.500 219.758 472.814 C 214.601 467.368, 207.858 458.603, 206.513 455.596 C 205.752 453.893, 204.153 451.375, 202.961 450 C 199.105 445.554, 205.731 456.789, 211.218 464 C 216.676 471.174, 223.027 478.307, 223.518 477.816 C 223.691 477.642, 222.743 473, 221.409 467.500 C 218.125 453.952, 217.338 439.648, 219.357 430.191 C 221.342 420.892, 226.958 409.179, 231.947 403.935 C 235.206 400.509, 236.355 399.911, 239.162 400.180 C 242.020 400.454, 242.835 401.175, 244.828 405.192 C 246.766 409.097, 247.168 411.528, 247.229 419.692 C 247.301 429.356, 247.315 429.412, 248.189 423.500 C 250.264 409.453, 243.909 396.201, 236.463 399.049 M 107.034 404.771 C 105.321 406.158, 104.998 407.146, 105.545 409.324 C 106.498 413.120, 114.789 421.974, 120.125 424.893 C 125.204 427.672, 124.594 426.965, 116.978 421.252 C 108.031 414.539, 104.530 408.612, 107.663 405.480 C 111.983 401.160, 137.662 407.928, 154.160 417.735 C 159.297 420.788, 167.213 426.142, 171.750 429.631 C 177.536 434.080, 180 435.481, 180 434.321 C 180 433.411, 179.727 432.940, 179.394 433.273 C 179.060 433.607, 176.023 431.743, 172.644 429.132 C 155.166 415.626, 141.223 408.580, 124 404.550 C 115.286 402.512, 109.736 402.584, 107.034 404.771 M 281.096 498.083 C 276.396 500.948, 262.110 513.091, 258.658 517.154 C 247.498 530.291, 237.224 548.276, 234.175 560.014 C 233.101 564.146, 231.701 572.471, 231.063 578.514 C 229.595 592.430, 228.273 629.829, 229.197 631.321 C 229.581 631.940, 229.565 632.684, 229.162 632.974 C 228.759 633.263, 228.992 635.075, 229.680 637 C 230.758 640.016, 230.850 638.839, 230.341 628.500 C 229.715 615.774, 231.362 581.884, 233.135 571 C 234.746 561.108, 236.858 554.301, 241.083 545.385 C 248.191 530.384, 263.529 512.221, 278.179 501.456 C 281.656 498.901, 284.688 496.629, 284.917 496.406 C 285.921 495.428, 284.239 496.166, 281.096 498.083 M 120 505.059 C 120 505.641, 119.649 505.901, 119.221 505.636 C 118.097 504.942, 119.461 515.467, 121.405 522.500 C 124.450 533.517, 133.439 549.824, 143.729 563 C 149.589 570.504, 166.630 585.382, 174.343 589.728 C 178.656 592.159, 182.368 593.965, 182.591 593.742 C 182.815 593.519, 179.870 591.621, 176.048 589.526 C 168.169 585.207, 153.227 572.599, 147.400 565.353 C 145.255 562.685, 142.922 559.892, 142.215 559.145 C 137.690 554.364, 127.723 536.858, 124.197 527.500 C 122.626 523.328, 120 511.385, 120 508.407 C 120 504.541, 122.551 504.455, 131.344 508.024 C 160.160 519.720, 186.181 543.113, 199.935 569.687 C 201.696 573.090, 204.659 580.065, 206.519 585.187 C 208.379 590.309, 209.923 593.809, 209.950 592.965 C 210.108 588.114, 200.182 566.587, 192.690 555.531 C 186.213 545.973, 171.514 531.134, 160.761 523.298 C 150.319 515.688, 143.129 511.701, 131.224 506.921 C 123.623 503.869, 120 503.268, 120 505.059 M 359.419 531.501 C 356.714 532.877, 353.914 533.782, 353.198 533.513 C 352.482 533.243, 352.119 533.384, 352.392 533.825 C 352.664 534.266, 349.979 536.060, 346.425 537.813 C 339.315 541.319, 338.543 541.549, 339.595 539.845 C 340.041 539.124, 339.869 538.963, 339.138 539.415 C 338.494 539.813, 338.214 540.538, 338.516 541.027 C 338.818 541.515, 337.588 542.675, 335.783 543.605 C 331.535 545.791, 318 554.905, 318 555.579 C 318 555.863, 320.015 554.710, 322.477 553.016 C 335.077 544.347, 364.172 529.468, 366.658 530.422 C 368.684 531.200, 368.264 534.640, 365.021 543.835 C 355.344 571.277, 332.968 598.068, 291.964 631.308 C 287.491 634.934, 290.272 633.601, 295.500 629.613 C 301.581 624.975, 321.810 606.898, 327.920 600.642 C 330.901 597.590, 333.783 595.366, 334.325 595.701 C 334.866 596.035, 334.997 595.805, 334.617 595.189 C 334.236 594.572, 335.016 592.815, 336.351 591.284 C 347.978 577.945, 354.485 568.841, 359.784 558.500 C 367.126 544.170, 370.666 531.669, 367.880 529.905 C 365.798 528.586, 364.773 528.779, 359.419 531.501 M 310.500 560.504 C 296.946 570.630, 279.065 592.845, 270.257 610.500 C 263.634 623.775, 251.530 657.657, 252.278 660.829 C 252.494 661.748, 253.039 660.713, 253.489 658.529 C 254.386 654.168, 261.003 635.062, 265.967 622.500 C 274.889 599.923, 292.408 576.144, 310.724 561.750 C 316.178 557.464, 317.748 555.969, 316.750 556.011 C 316.613 556.016, 313.800 558.038, 310.500 560.504 M 436.023 562.164 C 420.704 564.933, 391.855 587.602, 372.110 612.384 C 361.836 625.280, 357.273 632.504, 349.143 648.746 C 339.717 667.576, 337.256 676.035, 341.219 675.983 C 341.923 675.974, 349.727 668.887, 358.560 660.233 C 367.393 651.580, 379.308 640.225, 385.036 635 C 423.988 599.474, 436.729 585.374, 442.030 571.923 C 444.151 566.542, 444.045 562.574, 441.759 561.788 C 441.066 561.550, 438.485 561.719, 436.023 562.164 M 436.254 563.117 C 417.633 566.524, 380.100 599.377, 361.148 628.859 C 353.368 640.960, 342.181 664.348, 340.491 672.042 C 339.929 674.598, 340.096 675.121, 341.381 674.843 C 342.250 674.654, 351.183 666.383, 361.231 656.461 C 371.279 646.540, 383.989 634.390, 389.475 629.461 C 418.904 603.023, 433.823 586.691, 439.657 574.528 C 444.644 564.128, 443.925 561.714, 436.254 563.117 M 819 580.565 C 807.844 582.572, 800.808 584.679, 787.500 590 C 780.900 592.638, 773.809 595.329, 771.742 595.979 C 765.456 597.955, 763.904 604.202, 768.750 608.023 C 772.490 610.971, 775.883 610.385, 792.120 603.990 C 799.406 601.121, 809.447 597.735, 814.433 596.466 C 819.420 595.196, 822.538 594.122, 821.362 594.079 C 818.057 593.957, 803.183 598.518, 788.951 604.019 C 781.863 606.759, 775.002 609, 773.706 609 C 770.566 609, 766.743 604.838, 767.168 601.881 C 767.541 599.282, 768.772 598.556, 781.500 593.436 C 808.749 582.473, 817.734 580.515, 840.809 580.506 C 850.329 580.503, 857.079 580.207, 855.809 579.850 C 851.698 578.692, 826.715 579.178, 819 580.565 M 485 604.502 C 453.233 609.657, 415.597 627.829, 386.837 651.900 C 377.634 659.603, 361 676.550, 361 678.224 C 361 678.658, 364.078 675.522, 367.840 671.256 C 391.329 644.622, 432.902 619.051, 468.380 609.415 C 480.045 606.246, 494.492 604.037, 497.786 604.918 C 508.040 607.660, 498.569 618.646, 475.707 630.528 C 466.058 635.543, 460.143 638.070, 421.500 653.687 C 402.324 661.438, 379.914 672.140, 371.065 677.775 C 366.051 680.968, 364.229 681.658, 362.815 680.901 C 361.751 680.331, 361 680.309, 361 680.848 C 361 683.060, 365.098 682.537, 369.568 679.755 C 378.076 674.459, 394.029 666.900, 395.186 667.615 C 395.814 668.003, 396.033 667.863, 395.684 667.298 C 394.909 666.044, 406.549 660.536, 424.500 653.664 C 430.017 651.552, 453.050 642.173, 455.500 641.042 C 456.600 640.533, 460.650 638.772, 464.500 637.126 C 473.881 633.118, 484.758 627.062, 492.506 621.533 C 502.314 614.534, 505.184 609.287, 501.184 605.667 C 498.511 603.248, 494.508 602.960, 485 604.502 M 396.166 676.998 C 392.399 678.780, 390 680.502, 390.246 681.247 C 390.875 683.144, 407.908 684.194, 427.680 683.555 C 445.716 682.972, 455.984 681.879, 467.320 679.337 C 477.545 677.044, 474.823 676.782, 463.953 679.013 C 450.690 681.734, 423.029 683.393, 405.509 682.517 C 396.083 682.046, 391.231 681.436, 391.640 680.773 C 391.987 680.213, 395.022 678.480, 398.385 676.923 C 401.748 675.366, 404.050 674.071, 403.500 674.047 C 402.950 674.022, 399.650 675.350, 396.166 676.998" stroke="none" fill="black" fill-rule="evenodd"/>
	<path fill-opacity="0.089" d="M 0 113.921 L 0 227.841 3.018 228.504 C 11.472 230.361, 39.485 243.407, 38.486 245.022 C 38.162 245.547, 38.482 245.770, 39.198 245.516 C 41.045 244.863, 44.812 248.477, 50.298 256.165 C 55.964 264.105, 65.704 273.418, 74.546 279.349 C 78.092 281.728, 80.657 284.044, 80.246 284.497 C 79.836 284.950, 80.011 285.029, 80.635 284.672 C 81.259 284.316, 85.084 285.550, 89.135 287.415 C 107.177 295.724, 127.953 300.234, 148.500 300.302 C 177.639 300.400, 201.919 293.011, 221.880 277.970 C 235.528 267.685, 243.140 256.556, 246.482 242 C 249.323 229.624, 250.970 225.273, 255.231 218.892 C 263.809 206.046, 283.555 192.987, 302.500 187.630 C 307.450 186.230, 318.925 183.694, 328 181.993 C 350.639 177.752, 360.873 174.925, 372.908 169.589 C 384.621 164.396, 392.620 159.732, 401.531 152.903 L 407.728 148.153 415.114 149.134 C 425.893 150.567, 441.886 151.624, 441.422 150.874 C 441.202 150.518, 441.692 149.671, 442.511 148.991 C 444.712 147.164, 444.323 144.399, 441.559 142.225 C 439.839 140.872, 436.801 140.127, 431.264 139.700 C 418.969 138.752, 419.062 138.962, 426.903 129.903 C 430.667 125.555, 435.266 119.532, 437.123 116.519 C 438.980 113.506, 441.063 111.032, 441.750 111.020 C 442.438 111.009, 443 110.629, 443 110.177 C 443 109.724, 445.808 108.831, 449.240 108.193 C 455.124 107.098, 459.952 104.643, 460.714 102.358 C 460.901 101.797, 460.069 100.086, 458.865 98.555 C 456.924 96.088, 456.207 95.837, 452.543 96.339 C 450.270 96.651, 447.530 97.194, 446.455 97.547 C 445.300 97.926, 444.958 97.843, 445.618 97.344 C 446.234 96.880, 447.800 92.225, 449.100 87 C 451.049 79.163, 451.449 75.050, 451.385 63.500 C 451.317 51.291, 450.960 48.349, 448.595 40.500 C 445.111 28.942, 439.709 18.967, 431.249 8.469 L 424.500 0.095 212.250 0.047 L 0 0 0 113.921 M 1103.516 35.603 C 1094.353 37.640, 1082.812 42.139, 1075.588 46.489 C 1072.396 48.412, 1069.371 49.729, 1068.867 49.418 C 1068.363 49.106, 1068.052 49.222, 1068.177 49.676 C 1068.301 50.129, 1065.217 53.704, 1061.323 57.619 C 1047.367 71.655, 1041.433 88.015, 1044.089 105.136 C 1047.397 126.457, 1063.712 144.190, 1088.983 153.932 C 1127.781 168.889, 1177.432 155.367, 1196.899 124.542 C 1202.964 114.938, 1204.511 109.283, 1204.432 97 C 1204.375 88.122, 1203.956 85.455, 1201.721 79.733 C 1194.015 60.012, 1175.860 44.760, 1151.297 37.373 C 1143.709 35.091, 1140.302 34.681, 1126.500 34.388 C 1114.650 34.137, 1108.688 34.452, 1103.516 35.603 M 908.189 47.886 C 898.932 53.450, 896.056 55.697, 887.134 64.336 C 863.468 87.252, 857.864 112.359, 867.871 150.633 C 870.047 158.957, 872.542 167.147, 873.414 168.834 C 875.145 172.181, 875.557 174.410, 874 172 C 873.418 171.099, 873.025 170.975, 873.015 171.691 C 873.007 172.346, 873.453 173.162, 874.007 173.504 C 874.561 173.847, 875.739 175.561, 876.624 177.313 L 878.234 180.500 874.480 177 C 863.822 167.063, 861.209 163.448, 851.161 144.741 C 843.336 130.170, 837.735 122.588, 826.483 111.331 C 816.430 101.273, 805.345 93, 801.923 93 C 798.229 93, 796.221 107.217, 798.451 117.582 C 800.188 125.656, 803.396 134.343, 805.980 137.972 C 807.161 139.630, 807.840 141.451, 807.489 142.018 C 807.138 142.585, 807.447 142.926, 808.176 142.775 C 808.908 142.623, 809.439 143.277, 809.363 144.239 C 809.288 145.196, 809.554 145.776, 809.954 145.528 C 811.073 144.837, 817.141 151.515, 816.268 152.476 C 815.845 152.941, 815.995 153.038, 816.601 152.694 C 817.206 152.349, 819.231 153.220, 821.101 154.629 C 825.151 157.682, 839.265 164.789, 850.785 169.576 C 862.790 174.565, 875.397 182.491, 874.322 184.374 C 873.969 184.993, 874.037 185.177, 874.474 184.783 C 875.458 183.894, 878.333 186.132, 888.004 195.318 C 892.164 199.268, 901.843 208.350, 909.515 215.500 C 927.516 232.278, 976.566 281.218, 976.282 282.118 C 976.162 282.497, 976.837 283.414, 977.782 284.154 C 979.332 285.368, 979.366 285.329, 978.128 283.750 C 975.529 280.437, 978.363 282.005, 981.741 285.750 C 991.352 296.405, 993.247 298.040, 994.638 296.886 C 995.769 295.947, 995.485 294.844, 992.988 290.478 C 989.163 283.794, 986 271.525, 986 263.378 C 986 255.408, 988.560 248.446, 994.848 239.318 C 1007.126 221.496, 1011.745 209.135, 1012.685 191.583 C 1013.619 174.162, 1010.868 163, 1005.641 163 C 999.556 163, 984.728 179.884, 977.975 194.500 C 971.970 207.499, 970.617 213.742, 970.609 228.500 C 970.603 239.493, 971.024 243.092, 973.335 251.814 C 974.838 257.486, 976.714 263.786, 977.506 265.814 C 979.610 271.206, 980.941 278, 979.894 278 C 979.402 278, 978.944 277.550, 978.875 277 C 978.806 276.450, 978.638 275.550, 978.500 275 C 978.362 274.450, 978.194 273.073, 978.125 271.941 C 978.056 270.809, 977.550 270.160, 977 270.500 C 976.450 270.840, 976 270.690, 976 270.166 C 976 269.642, 975.325 268.955, 974.500 268.638 C 972.199 267.755, 972.713 269.440, 975.636 272.364 C 977.086 273.814, 977.863 275, 977.363 275 C 975.978 275, 960.862 259.495, 961.469 258.697 C 961.761 258.314, 961.688 258.237, 961.308 258.526 C 960.266 259.317, 949.998 248.812, 950.701 247.675 C 951.035 247.134, 950.818 246.994, 950.219 247.365 C 948.417 248.478, 939.857 235.399, 937.322 227.658 C 934.584 219.300, 934.268 209.334, 936.537 202.876 C 937.382 200.469, 940.549 194.590, 943.574 189.811 C 954.567 172.443, 958.712 160.315, 959.676 142.702 C 960.533 127.016, 956.542 108.185, 951.467 103.973 C 950.146 102.877, 949.293 103.273, 945.827 106.591 C 934.844 117.104, 923.220 136.738, 919.535 151 C 917.209 160.005, 916.430 178.165, 917.962 187.664 C 919.468 196.999, 924.884 216.653, 927.837 223.500 L 929.994 228.500 927.483 225.678 C 926.101 224.125, 925.210 222.469, 925.502 221.997 C 925.794 221.525, 925.506 220.813, 924.862 220.415 C 924.131 219.963, 923.959 220.124, 924.405 220.845 C 925.543 222.688, 923.473 222.180, 921.655 220.171 C 919.703 218.014, 919.472 216.565, 921.250 217.633 C 922.099 218.143, 922.060 217.842, 921.128 216.692 C 919.642 214.860, 918.494 214.372, 919.500 216 C 919.840 216.550, 919.668 217, 919.118 217 C 918.086 217, 916.542 215.072, 916.515 213.750 C 916.507 213.338, 916.120 213.044, 915.657 213.098 C 914.191 213.267, 909.043 207.740, 909.690 206.692 C 910.045 206.119, 909.805 206.003, 909.128 206.421 C 907.283 207.561, 892.408 192.426, 887.787 184.706 C 876.727 166.230, 875.231 147.319, 883.533 130.934 C 884.846 128.344, 889.902 121.112, 894.769 114.863 C 906.254 100.116, 909.496 95.302, 913.039 87.730 C 920.796 71.153, 923.682 43, 917.624 43 C 916.907 43, 912.661 45.199, 908.189 47.886 M 597.500 46.990 C 588.708 48.770, 569.490 55.110, 567.817 56.783 C 566.312 58.288, 663.317 71.952, 675.709 71.981 C 686.444 72.006, 698.621 70.162, 700.188 68.274 C 701.196 67.059, 701.062 66.518, 699.462 65.346 C 696.192 62.950, 652.478 49.164, 641.329 47.013 C 628.012 44.443, 610.131 44.434, 597.500 46.990 M 616.500 84.596 C 604.071 86.421, 593.521 88.403, 587.800 89.988 C 577.259 92.909, 564 97.356, 564 97.969 C 564 98.539, 566.987 99.370, 584.500 103.669 C 599.619 107.380, 624.571 108.009, 639 105.042 C 649.182 102.948, 661.606 98.315, 670.761 93.198 C 676.262 90.123, 675.602 89.607, 662.670 86.871 C 653.771 84.988, 623.868 83.515, 616.500 84.596 M 1170.190 182.026 C 1168.369 183.136, 1166.387 183.739, 1165.785 183.367 C 1165.176 182.991, 1164.973 183.147, 1165.328 183.722 C 1165.678 184.288, 1164.188 185.983, 1162.017 187.488 C 1151.528 194.757, 1135.022 214.986, 1127.736 229.500 C 1124.255 236.435, 1119.724 249.717, 1116.989 261 C 1114.930 269.497, 1108.681 285, 1107.315 285 C 1107.024 285, 1107.054 284.302, 1107.382 283.448 C 1107.744 282.504, 1107.563 282.152, 1106.920 282.549 C 1106.339 282.908, 1106.097 283.810, 1106.382 284.554 C 1106.668 285.297, 1103.828 292.339, 1100.071 300.203 C 1096.315 308.066, 1091.534 319.225, 1089.446 325 C 1087.358 330.775, 1085.391 335.812, 1085.075 336.193 C 1084.759 336.574, 1084.380 333.424, 1084.234 329.193 C 1084.087 324.962, 1083.478 317.496, 1082.880 312.602 C 1081.532 301.575, 1081.890 299.322, 1087.705 282.242 C 1092.278 268.811, 1092.392 268.172, 1092.779 254 C 1093.228 237.580, 1091.187 224.457, 1086.643 214.530 C 1081.985 204.358, 1077.923 204.850, 1068.904 216.679 C 1057.042 232.237, 1052.176 255.639, 1056.935 274.244 C 1059.052 282.522, 1061.453 287.710, 1068.301 298.799 C 1074.710 309.176, 1076.511 317.066, 1076.453 334.500 C 1076.400 350.407, 1076.145 351.522, 1066.808 376.745 C 1063.500 385.680, 1060.395 392.744, 1059.908 392.443 C 1059.421 392.142, 1059.257 392.505, 1059.542 393.250 C 1059.828 393.994, 1057.524 400.880, 1054.422 408.551 C 1042.316 438.495, 1041.937 440.500, 1048.390 440.500 C 1052.199 440.500, 1052.366 440.344, 1056.390 433 C 1064.755 417.735, 1076.980 408.728, 1098.540 401.944 C 1123.033 394.237, 1135.520 389.715, 1145.615 384.896 C 1155.290 380.278, 1169.057 371.858, 1173.676 367.733 C 1174.929 366.614, 1176.373 366.112, 1177.080 366.550 C 1177.810 367, 1178.053 366.895, 1177.679 366.290 C 1177.333 365.730, 1179.239 363.425, 1181.916 361.168 C 1188.099 355.955, 1196 345.495, 1196 342.523 C 1196 341.270, 1195.315 339.676, 1194.477 338.981 C 1191.113 336.189, 1166.731 340.749, 1148.465 347.587 C 1139.533 350.931, 1125.480 357.716, 1122.294 360.223 C 1121.630 360.745, 1120.607 360.875, 1120.019 360.512 C 1119.431 360.149, 1119.074 360.259, 1119.225 360.757 C 1119.376 361.255, 1115 365.070, 1109.500 369.236 C 1104 373.401, 1096.624 379.314, 1093.108 382.376 C 1089.592 385.437, 1086.260 387.661, 1085.703 387.317 C 1085.147 386.973, 1084.964 387.132, 1085.297 387.671 C 1085.630 388.211, 1080.525 394.083, 1073.951 400.721 C 1067.378 407.359, 1062.015 412.500, 1062.033 412.145 C 1062.163 409.641, 1069.968 391.548, 1070.837 391.738 C 1071.437 391.869, 1071.717 391.419, 1071.459 390.738 C 1070.802 389.004, 1083.757 362.732, 1084.915 363.448 C 1085.436 363.769, 1086.187 363.506, 1086.585 362.862 C 1087.037 362.131, 1086.876 361.959, 1086.155 362.405 C 1083.935 363.776, 1085.030 361.114, 1088.654 356.327 C 1101.052 339.950, 1110.692 333.007, 1131.480 325.482 C 1136.771 323.567, 1142.468 321.292, 1144.140 320.428 C 1145.812 319.563, 1147.914 319.137, 1148.810 319.480 C 1149.706 319.824, 1150.115 319.782, 1149.719 319.385 C 1149.323 318.989, 1152.199 316.928, 1156.111 314.806 C 1174.408 304.878, 1193.881 290.270, 1205.723 277.590 C 1214.160 268.556, 1219.806 258.375, 1218.124 255.231 C 1217.544 254.149, 1217.277 253.056, 1217.530 252.803 C 1217.783 252.550, 1215.041 252.738, 1211.435 253.221 C 1202.388 254.433, 1189.715 258.238, 1177.305 263.467 C 1171.550 265.892, 1166.090 267.637, 1165.171 267.344 C 1163.899 266.938, 1163.818 267.039, 1164.834 267.767 C 1165.911 268.538, 1165.845 268.845, 1164.494 269.364 C 1163.573 269.717, 1162.341 269.710, 1161.755 269.349 C 1161.162 268.982, 1160.981 269.160, 1161.346 269.750 C 1161.713 270.345, 1159.918 272.023, 1157.250 273.577 C 1154.638 275.099, 1150.151 278.071, 1147.279 280.182 C 1144.408 282.293, 1141.483 283.903, 1140.779 283.760 C 1140.076 283.617, 1139.588 283.989, 1139.696 284.587 C 1139.803 285.185, 1136.195 289.058, 1131.678 293.192 C 1127.160 297.327, 1118.241 307.412, 1111.858 315.605 C 1105.474 323.797, 1098.405 332.525, 1096.148 335 L 1092.045 339.500 1093.154 336.154 C 1093.846 334.064, 1094.538 333.252, 1094.995 333.992 C 1095.398 334.644, 1095.727 333.402, 1095.727 331.234 C 1095.727 326.424, 1107.629 298.653, 1109.259 299.660 C 1109.859 300.031, 1110.014 299.831, 1109.620 299.194 C 1108.946 298.104, 1114.451 286, 1115.621 286 C 1115.947 286, 1115.946 286.698, 1115.618 287.552 C 1115.264 288.475, 1115.440 288.846, 1116.052 288.468 C 1116.618 288.118, 1116.830 287.039, 1116.522 286.070 C 1115.690 283.449, 1122.608 275.350, 1131.580 268.439 C 1135.821 265.173, 1141.715 260.570, 1144.679 258.211 C 1147.642 255.853, 1150.571 254.235, 1151.188 254.616 C 1151.804 254.997, 1152.037 254.869, 1151.705 254.332 C 1151.087 253.331, 1167.726 236.097, 1168.439 237 C 1168.656 237.275, 1169.208 237.090, 1169.667 236.590 C 1170.151 236.061, 1169.976 235.981, 1169.250 236.399 C 1167.264 237.542, 1167.761 236.341, 1171.380 231.252 C 1176.500 224.055, 1178.807 218.902, 1181.586 208.462 C 1184.764 196.523, 1185.207 186.519, 1182.727 182.718 C 1180.512 179.323, 1175.112 179.025, 1170.190 182.026 M 194.500 306.838 C 189.783 309.716, 181.383 319.494, 178.679 325.252 C 172.851 337.664, 172.548 339.308, 172.642 358 C 172.717 372.970, 173.163 377.813, 175.726 391.500 C 177.374 400.300, 178.328 406.825, 177.846 406 C 160.127 375.653, 151.862 363.951, 140.738 353.457 C 133.987 347.087, 124.383 341, 121.085 341 C 120.514 341, 119.314 342.117, 118.419 343.483 C 115.605 347.779, 119.101 358.684, 126.731 369.408 C 128.652 372.107, 130.328 375.032, 130.457 375.908 C 130.585 376.783, 131.161 377.500, 131.735 377.500 C 132.309 377.500, 135.205 379.750, 138.169 382.500 C 141.134 385.250, 149.561 391.550, 156.896 396.500 C 174.693 408.510, 175.628 409.620, 182.571 427 C 184.658 432.225, 187.634 438.657, 189.183 441.294 C 190.732 443.931, 192 446.293, 192 446.543 C 192 446.793, 190.146 445.198, 187.879 442.999 C 185.613 440.800, 183.363 439, 182.879 439 C 182.396 439, 182 438.325, 182 437.500 C 182 436.675, 181.539 436, 180.975 436 C 180.411 436, 175.799 432.888, 170.725 429.084 C 149.627 413.266, 129.986 404.746, 114.215 404.570 C 104.005 404.456, 103.640 407.845, 112.847 417.274 C 121.960 426.607, 132.790 431.486, 167.538 441.914 C 173.637 443.745, 179.916 446.451, 183.538 448.811 C 190.689 453.470, 212.241 473.801, 211.426 475.119 C 211.110 475.631, 211.244 475.926, 211.723 475.775 C 212.202 475.624, 214.148 476.803, 216.047 478.396 C 219.100 480.957, 219.211 481.203, 217 480.517 C 215.625 480.090, 212.421 478.697, 209.881 477.420 C 201.931 473.425, 181.943 467.256, 171.142 465.463 C 154.058 462.626, 136 464.436, 136 468.984 C 136 472.016, 148.015 478.837, 159.007 482.046 C 165.281 483.877, 170.243 484.350, 189.500 484.955 C 214.251 485.733, 216.848 486.217, 228.072 492.146 C 234.822 495.711, 243.626 502.850, 243.167 504.386 C 242.983 504.999, 243.155 505.178, 243.548 504.785 C 243.941 504.392, 245.057 504.495, 246.026 505.014 C 248.848 506.524, 250.429 503.837, 248.155 501.397 C 244.224 497.177, 239.081 488.759, 237.469 483.905 C 234.710 475.599, 235.819 462.774, 240.271 451.500 C 249.312 428.607, 249.370 402.637, 240.384 400.382 C 238.678 399.953, 236.689 400.225, 235.130 401.101 C 231.216 403.297, 224.205 414.656, 221.314 423.484 C 217.731 434.423, 217.549 451.011, 220.860 465 C 222.096 470.225, 223.537 475.540, 224.061 476.811 C 224.960 478.993, 224.898 479.042, 222.955 477.681 C 219.488 475.253, 213.828 468.088, 214.507 466.988 C 214.860 466.417, 214.686 466.074, 214.121 466.225 C 212.505 466.657, 204.533 455.415, 200.074 446.416 C 189.063 424.196, 190.989 410.625, 207.344 395.180 C 231.410 372.454, 242.203 359.215, 246.137 347.596 C 248.965 339.243, 245.068 336.536, 236.686 341.028 C 234.604 342.144, 232.404 342.750, 231.796 342.374 C 231.187 341.997, 230.970 342.143, 231.313 342.698 C 231.656 343.252, 229.588 345.214, 226.718 347.059 C 217.285 353.123, 204.964 366.473, 198.856 377.248 C 195.817 382.610, 192.959 386.660, 192.505 386.248 C 192.051 385.837, 192.024 386.097, 192.446 386.827 C 192.868 387.557, 192.504 390.032, 191.637 392.327 C 189.475 398.053, 187.046 408.768, 186.951 413 C 186.890 415.731, 186.706 416.061, 186.112 414.500 C 184.665 410.697, 184.905 389.862, 186.494 381.384 C 187.345 376.840, 190.514 366.065, 193.537 357.440 C 199.762 339.674, 202 328.691, 202 315.904 C 202 308.194, 201.754 306.939, 200.066 306.035 C 197.640 304.737, 198.038 304.679, 194.500 306.838 M 1250 392.972 C 1227.033 394.794, 1202.047 399.331, 1188 404.231 C 1166.350 411.782, 1154.154 419.595, 1136.993 436.903 C 1114.268 459.823, 1104.538 464.872, 1072.500 470.375 C 1061.955 472.186, 1045.575 474.829, 1042 475.296 C 1040.625 475.476, 1047.150 475.530, 1056.500 475.415 L 1073.500 475.207 1058.500 475.971 C 1037.703 477.029, 1021.395 480.720, 1005.323 488.007 C 999.770 490.525, 998.994 491.217, 998.953 493.687 C 998.481 522.040, 998.448 522.449, 996.245 526.643 C 991.656 535.378, 980.746 542.025, 963.676 546.484 C 958.629 547.802, 953.375 549.072, 952 549.304 C 944.908 550.505, 960.092 549.787, 968.507 548.524 C 981.026 546.645, 985.444 545.188, 1002 537.479 C 1015.346 531.265, 1034.841 524.900, 1039.893 525.107 C 1041.634 525.179, 1041.006 525.529, 1038 526.162 C 1026.713 528.540, 1014.435 532.758, 1002 538.529 C 985.045 546.398, 981.005 547.742, 968.549 549.660 C 960.531 550.894, 955.063 551.040, 941.500 550.383 C 917.968 549.243, 906.673 549.519, 898.541 551.432 C 888.448 553.805, 885.702 557.273, 889.557 562.777 C 890.885 564.673, 890.900 565, 889.661 565 C 888.389 565, 883.410 567.192, 861.518 577.393 L 856.536 579.714 863.253 580.884 C 870.011 582.060, 875.790 583.849, 873 583.901 C 872.175 583.916, 868.800 583.264, 865.500 582.452 C 850.976 578.876, 825.887 579.553, 808.545 583.989 C 800.640 586.010, 771.275 597.348, 768.290 599.530 C 765.933 601.253, 767.530 605.879, 771.190 607.933 C 774.226 609.637, 775.107 609.410, 794 602.055 C 808.635 596.358, 818.055 593.877, 826.371 593.530 C 830.292 593.367, 832.150 593.402, 830.500 593.608 C 818.836 595.066, 817.348 595.804, 810.006 603.772 C 804.897 609.316, 801.600 614.164, 797.980 621.455 C 792.530 632.432, 792.281 633.213, 794.500 632.362 C 795.325 632.045, 796 632.020, 796 632.305 C 796 632.772, 788.582 635.816, 774.572 641.099 C 767.600 643.728, 766.061 647.061, 770 651 C 773.021 654.021, 776.823 653.483, 791.196 648 C 798.405 645.250, 804.797 643.019, 805.401 643.042 C 806.006 643.066, 801.563 644.995, 795.530 647.328 C 785.481 651.216, 784.389 651.896, 782.530 655.430 C 781.413 657.552, 777.437 662.711, 773.694 666.894 C 757.759 684.702, 753.478 695.245, 753.672 716.209 C 753.784 728.284, 755.414 736.016, 760.216 747.250 L 762.246 752 1077.123 752 L 1392 752 1392 582.684 L 1392 413.368 1386.750 411.220 C 1371.597 405.021, 1342.195 397.986, 1318.911 394.989 C 1301.544 392.753, 1265.914 391.710, 1250 392.972 M 1263.500 479.872 C 1256.900 481.366, 1249.025 483.813, 1246 485.309 C 1240.176 488.189, 1240.661 488.105, 1251 484.447 C 1262.545 480.362, 1271.907 478.829, 1288.601 478.291 C 1306.834 477.704, 1319.060 479.156, 1333.035 483.571 C 1344.845 487.302, 1344.769 487.284, 1341.894 485.607 C 1340.460 484.771, 1335.960 483.151, 1331.894 482.007 C 1318.182 478.150, 1309.122 477.035, 1292 477.096 C 1277.798 477.147, 1273.829 477.533, 1263.500 479.872 M 283.226 498.004 C 279.488 500.283, 278.577 500.494, 279.595 498.845 C 280.041 498.124, 279.869 497.963, 279.138 498.415 C 278.494 498.813, 278.196 499.509, 278.476 499.962 C 278.756 500.415, 275.875 503.330, 272.073 506.441 C 251.016 523.668, 236.425 548.210, 233.096 572 C 231.260 585.122, 229.741 616.079, 230.323 628.500 C 230.633 635.100, 230.672 639.825, 230.410 639 C 230.148 638.175, 225.478 628.500, 220.031 617.500 C 214.585 606.500, 208.698 593, 206.950 587.500 C 203.258 575.881, 198.998 567.045, 192.545 557.619 C 190.015 553.923, 188.251 550.402, 188.627 549.795 C 189.015 549.166, 188.855 548.972, 188.254 549.343 C 187.012 550.111, 177.345 539.223, 177.833 537.605 C 178.017 536.997, 177.845 536.821, 177.453 537.214 C 177.060 537.606, 174.210 535.657, 171.120 532.881 C 158.724 521.751, 131.933 506.400, 123.784 505.758 L 120.500 505.500 120.762 510.500 C 121.664 527.712, 133.822 551.110, 151.678 570 C 154.018 572.475, 156.060 574.950, 156.216 575.500 C 156.372 576.050, 156.871 576.376, 157.325 576.225 C 157.779 576.074, 160.458 578.025, 163.279 580.561 C 166.100 583.097, 171.692 586.975, 175.706 589.178 C 179.720 591.381, 182.755 593.587, 182.450 594.080 C 182.146 594.574, 182.606 594.705, 183.473 594.372 C 185.359 593.648, 193.333 598.652, 192.484 600.026 C 192.161 600.549, 192.533 600.733, 193.312 600.434 C 195.980 599.410, 215.921 624.700, 214.394 627.171 C 213.975 627.850, 214.135 628.035, 214.791 627.629 C 217.130 626.183, 237.003 668.776, 235.666 672.372 C 235.435 672.992, 234.918 672.266, 234.517 670.757 C 234.115 669.248, 233.407 668.248, 232.943 668.535 C 232.480 668.822, 231.558 668.031, 230.895 666.778 C 230.232 665.525, 228.129 662.587, 226.223 660.249 C 223.175 656.510, 222.922 655.787, 224.129 654.249 C 225.334 652.711, 225.312 652.646, 223.944 653.712 C 222.632 654.733, 221.327 653.752, 215.633 647.465 C 211.421 642.815, 209.149 639.535, 209.599 638.753 C 209.996 638.064, 209.953 637.833, 209.503 638.241 C 209.053 638.648, 204.765 635.203, 199.974 630.584 C 177.548 608.965, 158.272 599.347, 124.811 593.080 C 112.903 590.850, 102.943 590.631, 102.301 592.584 C 101.463 595.130, 122.958 616.746, 135.251 625.720 C 137.864 627.628, 139.769 629.565, 139.484 630.025 C 139.200 630.485, 139.494 631.187, 140.138 631.585 C 140.869 632.037, 141.041 631.876, 140.595 631.155 C 139.434 629.275, 140.594 629.781, 147.125 634.003 C 154.484 638.759, 161.241 642.062, 173.743 647.018 C 178.826 649.033, 182.665 651.002, 182.273 651.393 C 181.881 651.785, 182.326 651.812, 183.260 651.454 C 186.084 650.370, 207.867 657.752, 214.500 662.041 C 221.189 666.365, 229.578 676.240, 233.993 684.986 C 240.089 697.062, 243.569 712.571, 246.058 738.750 L 247.317 752 252.158 752 L 257 752 256.988 747.250 C 256.981 744.638, 256.315 735.750, 255.508 727.500 C 254.701 719.250, 254.032 709.260, 254.021 705.301 C 253.980 691.226, 260.799 664.804, 267.328 653.728 C 270.801 647.837, 277.282 641.365, 285.505 635.574 C 289.352 632.865, 295.997 627.781, 300.271 624.278 C 304.671 620.671, 308.534 618.212, 309.175 618.608 C 309.806 618.998, 310.036 618.867, 309.693 618.312 C 309.354 617.764, 313.631 612.857, 319.198 607.408 C 344.466 582.673, 357.633 564.567, 364.424 545.218 C 365.720 541.523, 367.055 537.298, 367.390 535.829 C 368.072 532.834, 367.295 530, 365.792 530 C 364.224 530, 338.224 543.232, 330.693 547.863 C 326.950 550.164, 323.393 551.743, 322.789 551.369 C 322.134 550.965, 321.975 551.151, 322.395 551.830 C 323.222 553.168, 317.138 557.204, 315.666 556.294 C 315.130 555.962, 314.972 556.146, 315.316 556.702 C 316.161 558.070, 308.488 564.125, 306.753 563.459 C 305.994 563.168, 304.502 563.958, 303.437 565.215 L 301.500 567.500 303.579 565.750 C 304.722 564.788, 306.026 564, 306.476 564 C 306.926 564, 303.268 568.163, 298.347 573.250 C 289.174 582.734, 281.741 592.533, 275.022 604 C 264.966 621.161, 251.821 659.205, 249.427 678.076 C 248.329 686.725, 247.456 686.785, 245.664 678.335 C 240.339 653.226, 239.853 624.937, 244.479 609.377 C 245.317 606.559, 248.255 600.934, 251.007 596.877 C 257.214 587.729, 272.888 569.403, 274.188 569.775 C 274.716 569.926, 274.866 569.592, 274.521 569.033 C 274.175 568.474, 275.460 565.201, 277.376 561.759 C 285.349 547.431, 289.256 531.596, 289.407 513 C 289.497 501.870, 288.745 495.996, 287.231 496.004 C 286.829 496.006, 285.027 496.906, 283.226 498.004 M 1046 523.931 C 1044.075 524.298, 1049.097 524.403, 1057.160 524.164 C 1083.327 523.390, 1103.491 527.628, 1127.360 538.919 C 1149.332 549.314, 1161.786 552.117, 1184.692 551.823 L 1198.500 551.646 1181.500 550.946 C 1156.362 549.912, 1148.919 548.077, 1126 537.260 C 1111.949 530.629, 1095.646 525.618, 1083.026 524.052 C 1073.887 522.917, 1051.694 522.845, 1046 523.931 M 431 564.857 C 410.825 572.761, 379.997 600.641, 362.838 626.500 C 356.283 636.379, 347.723 652.896, 343.552 663.712 C 339.678 673.759, 339.416 675, 341.170 675 C 341.814 675, 351.151 666.330, 361.920 655.734 C 372.689 645.137, 388.409 630.193, 396.853 622.524 C 415.124 605.931, 427.493 593.019, 434.105 583.633 C 439.147 576.477, 443.463 566.649, 442.577 564.340 C 441.867 562.490, 436.422 562.733, 431 564.857 M 1023 575.950 C 1019.975 576.923, 1010.975 580.642, 1003 584.216 C 995.025 587.789, 984.900 591.654, 980.500 592.803 C 959.286 598.346, 928.822 598.186, 905.154 592.408 C 901.664 591.556, 898.605 591.062, 898.357 591.310 C 897.850 591.816, 908.366 594.395, 917.500 596.005 C 927.627 597.790, 951.636 598.355, 963.304 597.082 C 977.251 595.561, 987.958 592.405, 1003.202 585.322 C 1009.966 582.179, 1019.325 578.379, 1024 576.876 C 1028.675 575.374, 1031.600 574.153, 1030.500 574.164 C 1029.400 574.174, 1026.025 574.978, 1023 575.950 M 1277.500 574.687 C 1261.542 576.749, 1243.142 582.295, 1229.975 589.013 C 1220.016 594.094, 1203.394 598.809, 1194.292 599.136 C 1191.540 599.235, 1191.181 599.400, 1192.981 599.736 C 1199.340 600.924, 1216.598 596.448, 1230.500 590.005 C 1251.592 580.230, 1266.907 576.208, 1286.536 575.290 C 1306.566 574.354, 1325.611 577.455, 1344.441 584.720 C 1356.215 589.263, 1359 590.744, 1359 592.467 C 1359 593.245, 1359.432 594.149, 1359.960 594.475 C 1360.535 594.831, 1360.502 593.869, 1359.877 592.076 C 1358.963 589.456, 1357.568 588.599, 1348.667 585.187 C 1334.513 579.762, 1326.129 577.412, 1314.381 575.579 C 1305.233 574.152, 1285.364 573.671, 1277.500 574.687 M 482.952 605.986 C 467.334 608.701, 443.920 617.186, 426.197 626.553 C 414.999 632.471, 408.294 636.794, 394.606 646.920 C 389.715 650.539, 385.327 653.388, 384.856 653.250 C 384.385 653.113, 384.113 653.420, 384.250 653.933 C 384.388 654.446, 381.069 658.159, 376.876 662.183 C 367.110 671.555, 360.819 678.898, 361.547 680.075 C 362.657 681.873, 366.028 680.957, 371.731 677.309 C 379.981 672.029, 404.916 660.207, 423 652.999 C 450.905 641.876, 469.355 633.921, 477.980 629.292 C 494.758 620.288, 504.068 611.512, 501.381 607.235 C 500.136 605.252, 490.807 604.620, 482.952 605.986 M 1046 616.668 C 1028.340 619.464, 1016.436 623.254, 1001.212 630.927 C 979.936 641.650, 964.993 644.710, 939.251 643.612 C 930.588 643.243, 921.475 642.752, 919 642.521 L 914.500 642.101 918.500 643.071 C 925.510 644.771, 955.191 645.392, 965.273 644.049 C 976.635 642.535, 989.211 638.346, 1003 631.482 C 1025.390 620.336, 1037.218 617.537, 1062 617.520 C 1087.955 617.503, 1100.562 620.693, 1126.180 633.764 C 1138.740 640.172, 1154.399 645.700, 1157.275 644.742 C 1157.913 644.529, 1154.442 643.353, 1149.561 642.129 C 1143.584 640.630, 1135.221 637.189, 1123.949 631.590 C 1106.436 622.891, 1096.971 619.722, 1081.500 617.378 C 1073.281 616.132, 1052.063 615.708, 1046 616.668 M 1270.025 622.579 C 1265.913 623.329, 1259.446 624.885, 1255.653 626.037 C 1248.323 628.263, 1219.428 641.309, 1220.808 641.769 C 1221.258 641.919, 1227.222 639.377, 1234.063 636.119 C 1257.842 624.796, 1272.683 621.562, 1298 622.188 C 1307.075 622.413, 1312.700 622.263, 1310.500 621.856 C 1303.971 620.647, 1278.084 621.110, 1270.025 622.579 M 1279.247 635.103 C 1271.857 635.963, 1263.235 637.948, 1255.057 640.673 C 1249.489 642.529, 1230.840 651.173, 1231.336 651.669 C 1231.532 651.866, 1236.100 649.981, 1241.486 647.481 C 1255.471 640.990, 1268.770 637.299, 1283.236 635.895 C 1294.373 634.813, 1296.787 634.898, 1309.500 636.820 C 1317.200 637.984, 1324.625 639.171, 1326 639.458 C 1327.375 639.744, 1326.696 639.369, 1324.492 638.623 C 1318.841 636.711, 1299.249 633.975, 1292.318 634.130 C 1289.118 634.201, 1283.236 634.639, 1279.247 635.103 M 451.304 661.137 C 447.896 661.626, 439.796 663.435, 433.304 665.156 C 426.812 666.877, 420.150 668.288, 418.500 668.291 C 416.850 668.293, 416.124 668.512, 416.886 668.777 C 417.648 669.041, 413.227 671.195, 407.060 673.563 C 400.893 675.932, 394.645 678.685, 393.174 679.683 C 390.506 681.491, 390.531 681.498, 403.500 682.277 C 419.782 683.255, 449.780 681.607, 463.354 678.989 C 473.913 676.953, 487.436 671.151, 489.415 667.809 C 490.939 665.234, 487.658 662.307, 481.852 661.062 C 476.071 659.822, 460.187 659.861, 451.304 661.137 M 815.500 671.988 C 806.588 673.789, 796.896 676.995, 794 679.099 C 792.356 680.293, 791.803 680.448, 802 676.859 C 814.954 672.299, 820.751 671.498, 840.500 671.543 C 860.360 671.587, 862.917 671.959, 885 678 C 889.125 679.129, 895.875 680.245, 900 680.480 L 907.500 680.908 900 679.965 C 895.875 679.447, 889.575 678.167, 886 677.120 C 877.371 674.595, 866.977 672.245, 859 671.016 C 848.537 669.405, 825.763 669.913, 815.500 671.988" stroke="none" fill="black" fill-rule="evenodd"/>
	<path fill-opacity="0.244" d="M 0 114 C 0 217.125, 0.150 228, 1.576 228 C 4.090 228, 25.889 236.776, 32.846 240.589 C 41.738 245.463, 45.476 248.663, 49.680 255 C 67.526 281.899, 107.451 300.008, 148.881 299.996 C 181.501 299.986, 207.902 290.879, 228 272.703 C 238.574 263.140, 243.801 253.900, 247.044 239.041 C 250.392 223.700, 256.984 213.477, 269.880 203.622 C 284.092 192.763, 297.366 187.737, 326.974 182.005 C 353.349 176.899, 362.782 174.183, 376 167.887 C 387.769 162.281, 393.876 158.625, 402.154 152.226 L 407.807 147.856 419.114 149.428 C 434.614 151.583, 439.508 151.492, 442 149 C 446.765 144.235, 443.031 141.055, 431.288 139.879 C 426.455 139.395, 421.898 138.773, 421.163 138.497 C 420.259 138.158, 421.799 135.709, 425.920 130.933 C 432.447 123.369, 440 112.741, 440 111.122 C 440 109.960, 441.510 109.465, 449.254 108.089 C 456.027 106.885, 458.567 105.677, 460.016 102.970 C 460.884 101.348, 460.604 100.513, 458.472 98.382 C 455.801 95.711, 455.190 95.668, 447.367 97.618 C 444.978 98.213, 444.688 98.096, 445.630 96.916 C 446.251 96.137, 447.803 91.225, 449.078 86 C 452.228 73.093, 452.250 55.111, 449.129 43.500 C 445.330 29.361, 437.529 15.232, 427.222 3.824 L 423.767 -0 211.884 -0 L 0 0 0 114 M 1107.660 34.988 C 1101.022 36.184, 1089.866 39.642, 1083.349 42.524 C 1076.244 45.667, 1065.871 52.983, 1066.676 54.284 C 1067.027 54.852, 1066.822 55.008, 1066.217 54.634 C 1065.613 54.261, 1062.667 56.476, 1059.630 59.587 C 1053.876 65.481, 1047.932 75.612, 1045.472 83.720 C 1043.791 89.260, 1043.582 103.471, 1045.084 109.994 C 1047.108 118.777, 1056.841 134.834, 1059.242 133.350 C 1059.840 132.981, 1060.020 133.159, 1059.650 133.757 C 1058.742 135.227, 1067.092 142.376, 1075.368 147.212 C 1102.593 163.123, 1138.230 164.123, 1167.604 149.801 C 1175.196 146.099, 1187.599 136.809, 1187.225 135.104 C 1187.074 134.415, 1187.346 134.096, 1187.830 134.395 C 1189.099 135.179, 1193.339 130.357, 1192.530 129.049 C 1192.156 128.444, 1192.415 128.074, 1193.107 128.225 C 1194.813 128.599, 1200.683 118.756, 1202.782 112 C 1204.984 104.916, 1204.946 90.493, 1202.706 83 C 1198.858 70.129, 1188.298 57.071, 1174.399 47.998 C 1166.355 42.746, 1159.854 39.988, 1148 36.795 C 1139.576 34.525, 1116.070 33.473, 1107.660 34.988 M 909.940 46.800 C 877.979 65.724, 861.255 93.561, 863.329 124.383 C 863.996 134.282, 869.805 159.547, 873.109 166.917 C 874.239 169.438, 875.330 172.311, 875.534 173.302 C 875.738 174.293, 876.589 176.475, 877.426 178.152 C 878.836 180.979, 878.826 181.103, 877.280 179.850 C 868.489 172.727, 860.711 163.104, 854.771 152 C 852.269 147.325, 848.949 141.118, 847.392 138.207 C 838.229 121.077, 813.390 96.144, 802.853 93.499 C 800.623 92.940, 800.228 93.294, 799.177 96.802 C 796.179 106.810, 798.864 124.336, 805.223 136.267 C 808.718 142.823, 816.317 151.109, 823.068 155.724 C 825.581 157.441, 835.124 162.238, 844.276 166.384 C 853.427 170.529, 862.751 175.080, 864.995 176.497 C 867.238 177.913, 869.577 178.761, 870.192 178.382 C 870.806 178.002, 871.048 178.113, 870.729 178.629 C 870.410 179.145, 871.578 180.677, 873.325 182.034 C 875.071 183.390, 882.757 190.350, 890.404 197.500 C 898.051 204.650, 907.276 213.199, 910.904 216.499 C 914.532 219.798, 918.088 223.285, 918.807 224.249 C 920.241 226.171, 922.552 226.702, 921.405 224.845 C 920.959 224.124, 921.131 223.963, 921.862 224.415 C 922.506 224.813, 922.818 225.486, 922.555 225.911 C 921.837 227.072, 928.487 233.146, 930.099 232.800 C 930.870 232.635, 931.372 233.110, 931.215 233.856 C 930.868 235.503, 943.980 249.130, 945.191 248.382 C 945.663 248.090, 945.985 248.222, 945.906 248.676 C 945.550 250.726, 946.122 251.370, 947.081 250 C 947.915 248.809, 948.008 248.940, 947.533 250.639 C 947.048 252.376, 948.568 254.291, 955.637 260.843 C 960.422 265.280, 964.781 268.635, 965.323 268.300 C 965.865 267.965, 966.034 268.136, 965.698 268.680 C 964.914 269.949, 973.366 278.301, 974.394 277.273 C 974.819 276.848, 975.017 276.965, 974.833 277.533 C 974.342 279.056, 980.931 285.161, 982.213 284.369 C 982.816 283.996, 983.041 284.125, 982.713 284.655 C 982.385 285.186, 984.480 288.261, 987.368 291.490 C 991.173 295.745, 993.083 297.182, 994.308 296.712 C 995.800 296.140, 995.597 295.330, 992.570 289.782 C 988.918 283.089, 986.477 274.950, 985.436 266 C 984.551 258.396, 987.499 250.155, 995.202 238.700 C 1009.425 217.547, 1015.221 196.167, 1012.119 176.291 C 1010.298 164.615, 1007.882 161.450, 1002.788 164.063 C 999.226 165.890, 993.014 172.213, 993.696 173.317 C 994.033 173.863, 993.855 174.028, 993.300 173.685 C 991.131 172.345, 981.462 186.195, 976.931 197.135 C 968.582 217.290, 968.629 237.158, 977.088 263.603 C 978.690 268.610, 980.007 273.560, 980.015 274.603 C 980.028 276.194, 980.187 276.258, 981 275 C 981.533 274.175, 981.969 273.950, 981.969 274.500 C 981.969 275.050, 981.567 276.135, 981.076 276.912 C 980.367 278.031, 979.283 277.464, 975.841 274.173 C 971.223 269.757, 968.414 268.487, 971.588 272.250 L 973.486 274.500 970.919 272.241 C 969.507 270.998, 968.048 270.286, 967.676 270.658 C 967.304 271.029, 967 270.528, 967 269.544 C 967 268.067, 967.262 267.972, 968.500 269 C 969.325 269.685, 970 269.956, 970 269.602 C 970 269.249, 965.168 264.131, 959.262 258.230 C 953.356 252.328, 947.134 245.585, 945.434 243.245 C 943.734 240.905, 942.116 239.217, 941.838 239.495 C 941.561 239.773, 941.295 239.438, 941.249 238.750 C 941.203 238.063, 939.910 234.575, 938.376 231 C 936.271 226.096, 935.487 222.434, 935.184 216.087 C 934.706 206.108, 935.593 202.706, 941.014 193.718 C 943.257 190, 944.813 186.506, 944.472 185.954 C 944.130 185.402, 944.382 185.074, 945.030 185.225 C 946.778 185.633, 952.538 174.727, 955.423 165.545 C 960.513 149.348, 960.956 129.115, 956.542 114.500 C 954.876 108.985, 951.535 103, 950.122 103 C 948.545 103, 938.142 114.880, 932.842 122.734 C 922.940 137.409, 918.370 151.050, 917.328 169.047 C 916.656 180.667, 918.133 191.244, 922.516 206.178 C 923.859 210.755, 924.967 215.065, 924.979 215.755 C 924.991 216.445, 926.122 219.336, 927.493 222.178 C 928.865 225.021, 929.866 227.467, 929.718 227.615 C 929.571 227.763, 920.911 219.628, 910.475 209.539 C 900.039 199.450, 891.194 191.383, 890.819 191.614 C 890.445 191.844, 889.813 191.506, 889.415 190.862 C 888.963 190.131, 889.124 189.959, 889.845 190.405 C 890.480 190.797, 891 190.668, 891 190.118 C 891 189.568, 890.593 188.866, 890.095 188.559 C 888.599 187.634, 883.450 177.902, 881.070 171.500 C 878.252 163.921, 877.256 150.352, 878.970 142.908 C 879.655 139.934, 881.509 134.857, 883.090 131.626 C 884.671 128.395, 885.678 125.288, 885.328 124.721 C 884.978 124.155, 885.160 123.981, 885.733 124.335 C 886.949 125.087, 895.353 114.381, 894.558 113.094 C 894.263 112.617, 894.692 111.671, 895.511 110.991 C 896.330 110.311, 897 110.090, 897 110.500 C 897 110.910, 897.695 110.668, 898.546 109.962 C 899.396 109.257, 899.851 108.053, 899.557 107.288 C 899.263 106.522, 899.462 106.167, 899.998 106.499 C 901.109 107.185, 909.684 94.477, 913.366 86.688 C 917.947 76.997, 921.817 55.797, 920.466 47.796 C 919.908 44.494, 919.478 44.007, 917.162 44.050 C 915.698 44.078, 912.448 45.316, 909.940 46.800 M 1170.485 182.107 C 1160.244 187.522, 1145.337 201.913, 1136.858 214.571 C 1127.418 228.663, 1122.115 241.198, 1117.004 261.500 C 1114.783 270.325, 1112.353 276.209, 1104.717 291.254 C 1099.482 301.569, 1093.093 315.744, 1090.520 322.754 C 1087.948 329.764, 1085.496 335.859, 1085.073 336.299 C 1084.649 336.738, 1084.243 334.263, 1084.171 330.799 C 1084.098 327.334, 1083.499 319.238, 1082.839 312.808 C 1081.523 299.969, 1082.148 295.961, 1087.617 282.171 C 1094.650 264.438, 1094.779 238.872, 1087.940 218.321 C 1085.314 210.429, 1082.034 206.575, 1078.733 207.505 C 1076.144 208.235, 1069.859 214.743, 1066.231 220.452 C 1059.930 230.369, 1055 247.241, 1055 258.892 C 1055 271.786, 1058.610 282.881, 1067.398 297 C 1069.966 301.125, 1072.986 307.425, 1074.110 311 C 1076.683 319.187, 1077.694 337.674, 1076.118 347.740 C 1074.888 355.600, 1068.347 374.368, 1057.078 402.376 C 1048.023 424.881, 1044 435.892, 1044 438.172 C 1044 440.036, 1047.471 441.449, 1050.550 440.839 C 1051.490 440.652, 1053.929 437.433, 1055.971 433.685 C 1060.953 424.542, 1065.763 418.984, 1073.422 413.518 C 1081.857 407.499, 1089.500 404.200, 1107 399.025 C 1114.975 396.667, 1125.357 393.267, 1130.072 391.469 C 1154.647 382.100, 1180.401 365.152, 1190.596 351.639 C 1201.213 337.567, 1196.769 335.494, 1169.139 341.628 C 1136.289 348.921, 1111.709 363.831, 1078.157 396.816 C 1070.502 404.342, 1063.715 411.400, 1063.075 412.500 C 1060.801 416.413, 1063.072 407.855, 1066.567 399.339 C 1072.036 386.015, 1083.828 362.995, 1088.636 356.257 C 1099.748 340.686, 1111.225 332.588, 1133.736 324.440 C 1165.219 313.043, 1203.653 285.195, 1215.080 265.500 C 1218.814 259.065, 1218.986 254.286, 1215.517 253.415 C 1210.233 252.089, 1185.422 259.417, 1169.492 267.009 C 1158.311 272.338, 1145.088 281.285, 1134.492 290.690 C 1125.953 298.270, 1121.524 303.268, 1108.961 319.500 C 1103.243 326.888, 1092 340.287, 1092 339.713 C 1092 338.518, 1098.490 320.841, 1101.992 312.500 C 1113.086 286.076, 1120.600 275.971, 1139.500 262.059 C 1152.738 252.315, 1168.345 236.496, 1173.953 227.138 C 1179.708 217.535, 1183.073 206.096, 1183.703 194 C 1184.157 185.292, 1184.020 184.312, 1182.060 182.250 C 1179.380 179.430, 1175.636 179.384, 1170.485 182.107 M 188.244 312.500 C 183.992 316.857, 180.760 321.403, 178.442 326.286 C 169.992 344.079, 169.997 356.502, 178.477 405.500 C 178.876 407.806, 178.174 407.055, 175.440 402.250 C 173.484 398.813, 171.659 396, 171.383 396 C 171.107 396, 171.203 396.520, 171.595 397.155 C 172.028 397.854, 171.871 398.038, 171.198 397.622 C 170.587 397.245, 170.309 396.359, 170.579 395.655 C 171.198 394.041, 157.648 372.745, 150.229 363.672 C 139.564 350.630, 127.204 341.494, 121.168 342.192 C 118.762 342.470, 118.471 342.951, 118.202 347.084 C 118.017 349.931, 118.686 353.760, 119.969 357.188 C 122.360 363.578, 129.158 373.616, 130.847 373.250 C 131.481 373.113, 131.887 373.563, 131.750 374.250 C 131.612 374.938, 132.046 375.393, 132.714 375.262 C 133.382 375.131, 133.689 375.647, 133.397 376.408 C 132.306 379.250, 162.504 402.043, 165.174 400.393 C 165.828 399.988, 166.035 400.134, 165.663 400.736 C 164.951 401.889, 169.906 405.626, 171.500 405.139 C 172.050 404.971, 172.178 405.155, 171.785 405.548 C 171.392 405.942, 172.585 408.034, 174.438 410.198 C 176.290 412.363, 178.823 416.916, 180.066 420.317 C 182.573 427.177, 189.272 441.556, 191.193 444.202 C 193.799 447.791, 191.140 446.791, 186.660 442.498 C 184.083 440.029, 181.417 438.119, 180.737 438.254 C 180.057 438.389, 179.595 437.990, 179.711 437.367 C 180.168 434.916, 158.920 419.953, 146.500 413.980 C 132.786 407.385, 116.445 403.230, 110.500 404.826 C 99.959 407.657, 115.712 423.684, 137.216 432.007 C 141.222 433.557, 151.682 436.921, 160.460 439.481 C 179.379 445, 184.672 447.945, 197.337 460 C 202.249 464.675, 206.770 468.520, 207.384 468.545 C 207.998 468.570, 208.402 469.090, 208.282 469.701 C 208.161 470.311, 210.581 472.962, 213.658 475.591 C 218.446 479.681, 219.144 480.019, 218.502 477.935 C 217.566 474.897, 218.234 475.554, 220.194 479.598 L 221.695 482.695 207.836 476.826 C 187.856 468.365, 172.180 464.699, 155.500 464.587 C 144.820 464.516, 141.920 464.817, 139.250 466.276 C 137.463 467.252, 136 468.450, 136 468.937 C 136 470.078, 141.790 474.963, 143.327 475.118 C 143.972 475.184, 144.871 475.172, 145.324 475.094 C 145.778 475.015, 145.893 475.364, 145.580 475.870 C 144.971 476.855, 145.522 477.137, 154 480.179 C 163.179 483.472, 175.448 484.991, 193 485.008 C 204.156 485.019, 211.255 485.491, 214.920 486.466 C 217.900 487.259, 220.825 487.632, 221.420 487.294 C 222.014 486.956, 222.155 487.059, 221.734 487.523 C 221.312 487.986, 224.059 489.993, 227.838 491.981 C 231.617 493.970, 237.185 497.712, 240.212 500.298 C 245.404 504.734, 247.841 505.825, 249.298 504.368 C 249.646 504.021, 248.342 501.883, 246.400 499.618 C 240.541 492.783, 236.008 482.481, 235.338 474.479 C 234.793 467.964, 235.090 466.504, 239.822 452.500 C 242.609 444.250, 245.361 434.575, 245.938 431 C 249.796 407.053, 242.348 392.944, 231.839 404.293 C 227.836 408.616, 221.451 422.123, 219.923 429.500 C 217.980 438.879, 218.427 453.100, 221.007 464 C 222.244 469.225, 223.873 473.860, 224.628 474.300 C 225.382 474.740, 225.993 475.640, 225.985 476.300 C 225.975 477.053, 225.570 476.941, 224.898 476 C 224.037 474.795, 223.923 474.942, 224.320 476.750 C 224.960 479.674, 223.911 479.598, 221.012 476.512 C 219.074 474.450, 218.403 474.237, 217.087 475.262 C 215.722 476.327, 215.672 476.279, 216.732 474.920 C 217.745 473.620, 217.510 472.731, 215.413 469.920 C 214.010 468.039, 212.443 466.612, 211.931 466.750 C 211.419 466.887, 211.093 466.662, 211.208 466.250 C 211.322 465.837, 209.330 462.285, 206.782 458.355 C 194.302 439.113, 190.513 424.760, 194.655 412.428 C 196.425 407.159, 200.446 400.689, 203.860 397.616 C 205.011 396.580, 205.669 395.273, 205.322 394.712 C 204.975 394.150, 205.160 393.981, 205.732 394.334 C 206.786 394.986, 208.689 393.334, 208.998 391.500 C 209.091 390.950, 209.426 390.275, 209.744 390 C 210.061 389.725, 209.997 390.063, 209.601 390.750 C 208.217 393.155, 210.636 391.971, 213.821 388.684 C 215.589 386.861, 216.690 384.988, 216.268 384.524 C 215.845 384.059, 216.103 384.028, 216.840 384.454 C 221.095 386.915, 247 351.797, 247 343.569 C 247 339.835, 244.594 338.505, 240.218 339.818 C 231.557 342.418, 207.768 361.197, 209.528 364.045 C 210.015 364.833, 209.905 365.059, 209.235 364.645 C 207.600 363.635, 202.800 370.093, 197.207 380.829 C 191.648 391.500, 189.443 398.175, 187.676 409.679 C 186.967 414.296, 185.994 417.438, 185.225 417.593 C 184.524 417.734, 184.315 417.653, 184.761 417.413 C 185.207 417.173, 185.299 414.169, 184.966 410.738 C 183.376 394.360, 185.438 379.817, 191.946 361.500 C 199.427 340.445, 202 328.381, 202 314.358 C 202 307.236, 201.362 306, 197.686 306 C 195.188 306, 193.355 307.262, 188.244 312.500 M 1047.500 476.673 C 1033.646 478.395, 1016.555 483.052, 1004.750 488.323 C 998.475 491.124, 997.475 493.378, 1000.557 497.777 C 1002.749 500.908, 1005.803 500.621, 1019.049 496.040 C 1038.387 489.352, 1056.850 487.004, 1074.511 488.986 C 1090.988 490.835, 1102.671 494.252, 1119 501.997 C 1135.066 509.617, 1146.724 513.377, 1161 515.545 C 1179.602 518.370, 1203.593 516.843, 1218.335 511.895 C 1221.726 510.757, 1230.644 506.959, 1238.153 503.455 C 1258.572 493.928, 1274.876 489.961, 1293.322 490.031 C 1309.172 490.091, 1322.900 492.744, 1338.500 498.762 C 1350.463 503.377, 1353.249 503.751, 1355.902 501.098 C 1361.403 495.597, 1357.197 491.777, 1338.906 485.664 C 1320.863 479.635, 1313.671 478.500, 1293.500 478.500 C 1267.709 478.500, 1256.601 481.067, 1232.199 492.664 C 1211.743 502.386, 1203.617 504.273, 1182 504.319 C 1160.446 504.366, 1148.326 501.937, 1132 494.302 C 1106.710 482.474, 1095.335 478.835, 1078 477.026 C 1068.854 476.072, 1053.743 475.896, 1047.500 476.673 M 279.430 500.834 C 265.016 510.956, 250.694 527.349, 242.590 543 C 234.589 558.451, 232.722 567.830, 230.972 601.359 C 229.983 620.316, 230.102 627.155, 231.587 636.750 C 231.884 638.665, 231.661 640, 231.045 640 C 230.470 640, 230 639.453, 230 638.785 C 230 638.117, 225.744 629.182, 220.543 618.930 C 215.341 608.678, 209.664 595.838, 207.927 590.395 C 206.190 584.953, 203.460 577.602, 201.861 574.060 C 194.148 556.978, 176.186 535.728, 159.301 523.711 C 146.633 514.695, 123.207 503.460, 121.220 505.447 C 120.161 506.505, 120.841 514.591, 122.550 521.277 C 126.806 537.920, 143.214 562.953, 158.830 576.627 C 167.378 584.113, 172.941 587.851, 184 593.541 C 196.938 600.198, 209.994 615.536, 221.848 638.005 C 227.891 649.460, 236.381 670.357, 235.755 672.236 C 235.574 672.778, 234.105 671.260, 232.490 668.861 C 222.178 653.546, 196.333 625.875, 183.576 616.492 C 174.897 610.109, 162.125 603.444, 152 600.015 C 136.296 594.696, 108.002 589.634, 103.544 591.345 C 100.699 592.436, 104.001 596.788, 117.738 610.053 C 142.654 634.111, 158.360 642.824, 198.662 654.947 C 211.718 658.874, 219.552 664.051, 226.736 673.500 C 229.663 677.350, 233.406 683.337, 235.053 686.804 C 240.374 698.003, 244.941 720.118, 246.606 742.750 L 247.287 752 252.143 752 L 257 752 257 748.377 C 257 746.385, 256.274 737.498, 255.387 728.627 C 254.377 718.530, 253.978 708.387, 254.321 701.500 C 255.309 681.652, 262.887 658.042, 271.666 647.461 C 273.775 644.919, 280.381 639.227, 286.346 634.811 C 303.343 622.228, 313.697 613.146, 328.171 598.123 C 348.340 577.189, 358.780 561.528, 365.099 542.727 C 368.027 534.015, 368.220 532.791, 366.874 531.446 C 365.529 530.100, 363.834 530.693, 351.243 536.915 C 343.476 540.752, 334.057 545.800, 330.311 548.132 C 299.338 567.415, 278.332 592.068, 265.669 624 C 257.010 645.835, 250.874 666.716, 249.379 679.430 C 249.016 682.524, 248.368 685.272, 247.941 685.536 C 247.074 686.072, 244.808 676.644, 242.886 664.500 C 242.189 660.100, 241.606 648.175, 241.589 638 C 241.544 610.528, 244.068 603.305, 260.141 584.894 C 274.868 568.025, 281.828 555.812, 285.990 539.538 C 289.993 523.886, 290.865 501.933, 287.658 497.547 C 286.581 496.075, 285.714 496.421, 279.430 500.834 M 1048.500 524.609 C 1030.736 527.236, 1018.093 531.071, 1002.226 538.647 C 979.228 549.628, 967.405 551.833, 939.044 550.432 C 911.936 549.093, 899.045 549.971, 891.764 553.653 C 888.030 555.542, 887.113 559.557, 889.802 562.246 C 891.861 564.305, 891.899 564.306, 904.183 562.531 C 914.666 561.017, 918.032 560.919, 926.789 561.876 C 947.854 564.177, 973.381 562.891, 985.950 558.894 C 987.902 558.273, 996.025 554.719, 1004 550.996 C 1021.763 542.703, 1031.390 539.602, 1046.142 537.422 C 1065.140 534.615, 1088.985 536.905, 1106.391 543.207 C 1109.751 544.424, 1116.325 547.280, 1121 549.555 C 1140.154 558.875, 1151.823 562.228, 1171.556 564.083 C 1192.305 566.034, 1213.449 562.963, 1229.908 555.608 C 1234.084 553.743, 1241.184 550.574, 1245.687 548.567 C 1250.190 546.559, 1258.290 543.733, 1263.687 542.287 C 1272.670 539.879, 1275.150 539.654, 1293 539.627 C 1311.756 539.599, 1312.920 539.715, 1323.500 542.668 C 1329.550 544.357, 1338.895 547.455, 1344.266 549.553 L 1354.031 553.367 1356.766 551.335 C 1360.075 548.875, 1360.781 544.977, 1358.297 542.874 C 1356.108 541.020, 1342.923 535.529, 1334.167 532.825 C 1307.635 524.630, 1276.520 524.740, 1251.654 533.117 C 1248.408 534.210, 1240.746 537.379, 1234.626 540.160 C 1215.310 548.936, 1209.442 550.600, 1192.594 552.079 C 1170.664 554.004, 1150.308 550.019, 1127.764 539.389 C 1104.796 528.558, 1090.105 524.954, 1067 524.482 C 1058.475 524.308, 1050.150 524.365, 1048.500 524.609 M 432 564.455 C 423.055 567.815, 400.326 583.101, 401.486 584.977 C 401.787 585.464, 401.506 586.187, 400.862 586.585 C 400.131 587.037, 399.959 586.876, 400.405 586.155 C 400.797 585.520, 400.741 585, 400.280 585 C 398.702 585, 386.943 597.609, 387.722 598.466 C 388.150 598.936, 387.982 599.024, 387.349 598.662 C 385.886 597.826, 378.242 606.163, 368.231 619.512 C 359.799 630.754, 349.098 649.892, 344.193 662.500 C 340.565 671.825, 340.156 673.500, 341.507 673.500 C 342.053 673.500, 342.393 673.179, 342.262 672.786 C 342.131 672.393, 342.598 672.292, 343.299 672.561 C 344.599 673.060, 354.706 662.179, 354.250 660.772 C 354.113 660.347, 354.338 660.071, 354.750 660.159 C 356.056 660.435, 359 658.825, 359 657.834 C 359 657.310, 358.438 657.206, 357.750 657.601 C 357.024 658.019, 356.849 657.939, 357.333 657.410 C 357.792 656.910, 358.692 656.480, 359.333 656.455 C 359.975 656.430, 360.393 655.883, 360.262 655.241 C 360.131 654.598, 360.586 654.288, 361.272 654.551 C 362.439 654.999, 377.795 640.510, 377.250 639.475 C 377.113 639.214, 377.337 638.962, 377.750 638.915 C 379.157 638.755, 380.979 636.775, 380.473 635.956 C 380.195 635.506, 380.494 634.813, 381.138 634.415 C 381.869 633.963, 382.041 634.124, 381.595 634.845 C 380.022 637.391, 382.821 635.767, 386.500 632 C 388.648 629.800, 390.020 628, 389.548 628 C 389.076 628, 389.495 627.111, 390.479 626.024 C 391.462 624.937, 392.694 624.311, 393.215 624.633 C 394.324 625.318, 400.145 620.043, 399.475 618.960 C 399.226 618.557, 399.805 617.613, 400.761 616.863 C 402.369 615.603, 402.388 615.651, 401.017 617.500 C 399.553 619.475, 399.562 619.477, 401.744 617.616 C 402.959 616.580, 403.669 615.273, 403.322 614.712 C 402.942 614.096, 403.192 614, 403.952 614.470 C 405.565 615.467, 424.245 597.081, 423.525 595.204 C 423.249 594.485, 423.430 594.148, 423.928 594.455 C 425.010 595.124, 432.394 586.491, 436.719 579.500 C 440.174 573.913, 443.330 565.344, 442.454 563.926 C 441.648 562.621, 436.143 562.899, 432 564.455 M 1052 571.585 C 1032.583 573.817, 1021.328 577.017, 1002.892 585.550 C 979.895 596.193, 967.148 598.615, 939 597.686 C 919.122 597.031, 910.392 595.477, 886.972 588.426 C 868.445 582.849, 859.600 581.105, 846 580.344 C 826.215 579.238, 809.579 582.576, 784.521 592.681 C 765.493 600.353, 764.340 601.431, 769.566 606.657 C 772.795 609.886, 774.221 609.639, 791.368 602.890 C 812.555 594.550, 820.841 592.766, 839 592.636 C 856.479 592.510, 863.466 593.669, 883.544 600.025 C 908.736 608.001, 921.294 610.002, 946.128 609.996 C 973.498 609.990, 985.970 607.181, 1010 595.612 C 1016.325 592.566, 1026 588.830, 1031.500 587.308 C 1040.909 584.704, 1042.712 584.539, 1062 584.522 C 1081.420 584.504, 1083.053 584.653, 1093 587.343 C 1099.239 589.030, 1108.978 592.827, 1117 596.699 C 1141.024 608.295, 1154.002 611.720, 1177.552 612.676 C 1201.433 613.645, 1213.303 611.159, 1238.840 599.837 C 1273.616 584.419, 1304.984 583.224, 1338.760 596.031 C 1344.667 598.271, 1350.739 600.149, 1352.253 600.204 C 1356.184 600.347, 1359.167 597.316, 1358.799 593.551 C 1358.516 590.663, 1357.913 590.267, 1347.500 586.137 C 1319.789 575.146, 1292.583 572.410, 1265.842 577.925 C 1253.363 580.499, 1245.932 583.040, 1233.005 589.157 C 1213.880 598.205, 1195.973 601.819, 1175.938 600.673 C 1156.854 599.581, 1142.504 595.771, 1125.500 587.282 C 1112.539 580.812, 1097.174 575.467, 1085.716 573.444 C 1077.185 571.937, 1058.092 570.884, 1052 571.585 M 482.500 606.460 C 466.670 609.354, 448.470 615.647, 431.267 624.175 C 425.640 626.965, 421.275 629.637, 421.569 630.112 C 421.863 630.588, 421.499 630.745, 420.761 630.462 C 419.303 629.902, 399.193 643.234, 389.500 651.185 C 379.929 659.035, 362 677.245, 362 679.115 C 362 681.568, 365.593 680.916, 371.010 677.479 C 380.371 671.540, 404.525 660.330, 432.500 648.942 C 463.463 636.338, 467.375 634.627, 478.909 628.653 C 483.702 626.170, 485.879 624.543, 485.075 624.046 C 484.146 623.472, 484.245 623.120, 485.468 622.651 C 486.528 622.244, 486.860 622.417, 486.413 623.141 C 485.993 623.821, 486.267 624.061, 487.111 623.755 C 487.875 623.477, 488.376 622.710, 488.225 622.051 C 488.074 621.391, 488.420 621.141, 488.993 621.496 C 490.406 622.369, 498.180 616.101, 497.350 614.758 C 496.976 614.152, 497.160 613.981, 497.777 614.362 C 498.920 615.069, 502 611.412, 502 609.349 C 502 605.009, 495.613 604.063, 482.500 606.460 M 1041.749 618.485 C 1030.047 620.402, 1014.612 625.679, 1001.366 632.291 C 983.221 641.350, 975.413 643.518, 955.500 645.030 C 934.528 646.622, 916.705 644.109, 891.500 636.004 C 866.754 628.047, 858.332 626.555, 838 626.530 C 822.481 626.511, 819.255 626.807, 809.500 629.149 C 803.450 630.602, 792.200 634.273, 784.500 637.306 C 773.505 641.638, 770.178 643.390, 769 645.469 C 767.572 647.989, 767.641 648.240, 770.422 650.659 C 774.168 653.916, 776.816 653.532, 792.048 647.523 C 812.500 639.453, 832.506 636.572, 851.602 638.946 C 864.805 640.588, 871.581 642.216, 889.995 648.174 C 912.031 655.303, 923.661 657.252, 944.500 657.308 C 971.409 657.381, 984.620 654.327, 1008.500 642.517 C 1033.359 630.222, 1055.185 626.524, 1079.558 630.477 C 1093.135 632.679, 1100.836 635.322, 1119 644.012 C 1143.858 655.905, 1160.598 659.982, 1184.619 659.994 C 1205.477 660.004, 1218.475 656.941, 1240.053 646.929 C 1246.958 643.726, 1256.411 640.003, 1261.060 638.656 C 1286.125 631.392, 1313.276 633.014, 1339.163 643.323 C 1345.398 645.805, 1351.175 647.927, 1352 648.037 C 1357.028 648.708, 1360 646.414, 1360 641.864 C 1360 639.116, 1359.391 638.588, 1352.588 635.445 C 1334.331 627.010, 1317.587 623.010, 1297.387 622.259 C 1274.256 621.398, 1257.517 625.109, 1233.568 636.405 C 1227.008 639.499, 1218.895 642.879, 1215.538 643.915 C 1194.879 650.296, 1161.158 648.684, 1140.057 640.306 C 1136.451 638.874, 1127.875 634.895, 1121 631.463 C 1100.214 621.088, 1088.835 618.228, 1065.500 617.511 C 1055.183 617.195, 1047.768 617.499, 1041.749 618.485 M 453.500 661.081 C 442.507 662.587, 425.449 666.940, 414.203 671.111 C 400.804 676.080, 392 680.056, 392 681.137 C 392 682.341, 434.563 682.219, 447.144 680.979 C 460.053 679.706, 469.909 677.754, 477.191 675.030 C 495.802 668.067, 492.914 661.078, 471.162 660.437 C 465.298 660.264, 457.350 660.554, 453.500 661.081 M 823.500 671.695 C 812.412 673.157, 779.702 684.362, 777.765 687.362 C 776.619 689.137, 776.873 693.473, 778.200 694.800 C 780.386 696.986, 786.462 696.050, 796.380 691.999 C 814.238 684.705, 820.202 683.549, 840 683.548 C 856.843 683.547, 858.045 683.685, 872 687.209 C 890.881 691.977, 900.351 693.267, 913.401 692.845 C 924.693 692.480, 925.952 691.927, 925.985 687.321 C 926.014 683.115, 923.544 682, 914.179 681.996 C 903.573 681.992, 892.171 680.205, 877 676.170 C 870.675 674.488, 861.980 672.637, 857.678 672.056 C 850.263 671.055, 829.979 670.841, 823.500 671.695" stroke="none" fill="black" fill-rule="evenodd"/>
	<path fill-opacity="0.246" d="M 318 71.959 C 306.792 74.356, 298.130 77.730, 284.452 85.025 C 258.284 98.984, 234.676 99.222, 206.011 85.817 C 192.564 79.528, 186.696 77.192, 178.316 74.789 C 163.541 70.553, 130.815 72.169, 119.750 77.681 C 116.179 79.461, 116.041 83.326, 119.469 85.572 C 121.760 87.073, 122.641 87.043, 131.719 85.164 C 157.438 79.838, 172.072 81.949, 200 95.011 C 214.817 101.941, 222.862 104.507, 234.723 106.088 C 253.473 108.587, 267.939 105.549, 290.075 94.462 C 311.014 83.975, 318.917 81.769, 336 81.640 C 353.109 81.510, 360.735 83.444, 381.500 93.176 C 410.788 106.902, 420.052 110.005, 431.708 109.996 C 438.194 109.991, 453.212 107.485, 456.683 105.829 C 460.510 104.003, 461.040 99.727, 457.709 97.545 C 455.528 96.116, 454.608 96.110, 448.083 97.482 C 439.322 99.325, 428.595 99.380, 420.411 97.622 C 416.990 96.888, 406.035 92.335, 395.411 87.233 C 371.532 75.765, 368.262 74.499, 356.116 72.024 C 343.770 69.508, 329.573 69.484, 318 71.959 M 313 117.888 C 302.920 120.358, 299.467 121.728, 285.463 128.814 C 266.211 138.555, 263.062 139.393, 245.500 139.451 C 227.469 139.510, 224.845 138.887, 201.846 129.088 C 179.303 119.484, 171.386 117.618, 153 117.579 C 138.903 117.550, 133.473 118.283, 122.740 121.667 C 117.388 123.354, 115.350 125.917, 116.964 128.932 C 118.660 132.101, 121.538 132.282, 133.221 129.956 C 142.427 128.123, 146.410 127.837, 156.418 128.290 C 170.706 128.937, 177.524 130.739, 197.087 139.037 C 222.161 149.673, 230.341 151.514, 248.927 150.706 C 264.525 150.027, 270.414 148.291, 290.500 138.452 C 307.698 130.027, 316.239 127.386, 329.267 126.466 C 345.150 125.344, 358.805 128.401, 378.163 137.413 C 387.320 141.675, 398.115 145.611, 403.160 146.525 L 406.820 147.189 403.660 150.204 L 400.500 153.218 404.631 150.120 C 408.132 147.493, 409.199 147.159, 411.631 147.924 C 416.347 149.407, 435.651 151.235, 438.951 150.511 C 443.085 149.603, 444.640 146.625, 442.602 143.516 C 441.327 141.570, 439.896 141.054, 434.281 140.516 C 413.616 138.534, 399.640 135.014, 382.510 127.476 C 361.074 118.042, 355.931 116.790, 337 116.395 C 323.521 116.113, 319.127 116.386, 313 117.888 M 1171.500 181.900 C 1162.309 186.165, 1148.257 198.918, 1139.817 210.655 C 1128.894 225.844, 1123.058 238.807, 1117.878 259.384 C 1115.440 269.072, 1113.164 274.710, 1105.567 289.884 C 1096.686 307.623, 1091.261 320.183, 1087.479 331.765 C 1086.534 334.661, 1085.428 337.236, 1085.022 337.486 C 1084.616 337.737, 1084.008 333.343, 1083.670 327.721 C 1083.332 322.100, 1082.758 313.216, 1082.395 307.981 C 1081.738 298.524, 1081.763 298.377, 1086.315 285.210 C 1088.835 277.921, 1091.433 268.288, 1092.089 263.803 C 1095.581 239.923, 1087.011 204.372, 1078.545 207.621 C 1077.702 207.945, 1077.257 208.607, 1077.558 209.093 C 1077.858 209.579, 1077.464 209.732, 1076.682 209.432 C 1074.607 208.635, 1067.431 218.037, 1062.890 227.500 C 1050.956 252.373, 1052.935 274.312, 1069.431 300 C 1071.614 303.400, 1073.775 308.746, 1075.090 314 C 1076.939 321.391, 1077.147 324.392, 1076.685 337 C 1076.050 354.345, 1075.466 356.335, 1058.069 400.472 C 1055.257 407.606, 1053.186 414.042, 1053.467 414.774 C 1053.747 415.505, 1053.567 415.850, 1053.065 415.540 C 1052.172 414.988, 1050.609 418.620, 1045.858 432.283 C 1043.261 439.755, 1043.704 440.953, 1049.081 440.985 C 1051.260 440.998, 1052.275 439.877, 1055.581 433.808 C 1057.737 429.853, 1061.852 424.067, 1064.726 420.951 C 1067.600 417.835, 1069.625 414.924, 1069.226 414.482 C 1068.827 414.041, 1069.060 414.001, 1069.744 414.395 C 1070.441 414.796, 1072.420 414.036, 1074.244 412.666 C 1080.344 408.085, 1089.697 404.120, 1106.432 399.021 C 1115.625 396.220, 1125.926 392.871, 1129.323 391.578 C 1144.543 385.789, 1165.552 374.703, 1164.507 373.011 C 1164.210 372.531, 1164.494 371.813, 1165.138 371.415 C 1165.869 370.963, 1166.041 371.124, 1165.595 371.845 C 1164.337 373.881, 1165.953 373.098, 1171.570 368.948 C 1174.750 366.599, 1176.768 364.433, 1176.373 363.794 C 1175.947 363.105, 1176.152 362.976, 1176.920 363.450 C 1178.248 364.271, 1183.261 360.231, 1182.480 358.968 C 1182.228 358.560, 1182.805 357.613, 1183.761 356.863 C 1185.369 355.603, 1185.388 355.651, 1184.017 357.500 C 1182.553 359.475, 1182.562 359.477, 1184.744 357.616 C 1185.959 356.580, 1186.669 355.273, 1186.322 354.712 C 1185.975 354.150, 1186.169 353.987, 1186.754 354.348 C 1187.928 355.073, 1192.223 350.403, 1194.588 345.830 C 1196.329 342.464, 1195.641 339.060, 1193.183 338.871 C 1180.039 337.863, 1150.721 345.541, 1132.429 354.781 C 1119.090 361.520, 1088.147 384.810, 1089.539 387.064 C 1089.874 387.606, 1089.553 387.926, 1088.824 387.775 C 1088.096 387.624, 1087.613 388.063, 1087.750 388.750 C 1087.888 389.438, 1087.438 389.888, 1086.750 389.750 C 1086.063 389.613, 1085.607 390.046, 1085.738 390.714 C 1085.869 391.382, 1085.367 391.695, 1084.624 391.409 C 1083.199 390.862, 1066.500 408.333, 1066.500 410.370 C 1066.500 410.992, 1065.921 411.500, 1065.214 411.500 C 1064.506 411.500, 1063.456 412.175, 1062.879 413 C 1062.093 414.126, 1061.973 413.681, 1062.398 411.216 C 1064.114 401.254, 1081.854 364.869, 1090.551 353.470 C 1094.023 348.920, 1096.557 344.890, 1096.182 344.515 C 1095.807 344.140, 1096.175 343.983, 1097 344.167 C 1097.825 344.350, 1098.387 343.937, 1098.250 343.250 C 1098.112 342.562, 1098.562 342.112, 1099.250 342.250 C 1099.937 342.387, 1100.405 341.991, 1100.290 341.369 C 1100.174 340.747, 1101.074 339.397, 1102.290 338.369 L 1104.500 336.500 1102.595 338.750 C 1099.867 341.972, 1101.288 341.530, 1106.536 337.524 C 1111.801 333.505, 1122.260 328.391, 1133 324.585 C 1148.753 319.001, 1178.938 302.326, 1177.500 300.001 C 1177.207 299.526, 1177.494 298.813, 1178.138 298.415 C 1178.869 297.963, 1179.041 298.124, 1178.595 298.845 C 1177.518 300.589, 1178.858 300.237, 1182.107 297.924 C 1183.711 296.781, 1184.798 295.482, 1184.523 295.037 C 1184.247 294.591, 1184.805 293.613, 1185.761 292.863 C 1187.335 291.630, 1187.370 291.666, 1186.128 293.250 C 1185.373 294.212, 1185.205 295, 1185.755 295 C 1186.830 295, 1188.638 293.128, 1189.135 291.500 C 1189.303 290.950, 1189.958 290.619, 1190.589 290.764 C 1192.327 291.163, 1209.169 274.270, 1213.376 267.907 C 1217.777 261.252, 1218.969 256.049, 1216.552 254.043 C 1215.158 252.886, 1213.663 252.942, 1206.704 254.412 C 1191.873 257.545, 1164.308 268.071, 1165.573 270.118 C 1165.865 270.591, 1165.332 270.681, 1164.388 270.319 C 1163.231 269.875, 1162.905 270.038, 1163.388 270.819 C 1163.829 271.533, 1163.596 271.782, 1162.779 271.469 C 1161.310 270.905, 1146.500 280.381, 1146.500 281.885 C 1146.500 282.406, 1146.090 283.208, 1145.590 283.667 C 1145.061 284.151, 1144.981 283.976, 1145.399 283.250 C 1146.827 280.768, 1144.541 282.098, 1138.578 287.218 C 1128.431 295.928, 1120.235 304.864, 1109.848 318.541 C 1102.795 327.828, 1092.589 339.922, 1092.163 339.496 C 1091.097 338.430, 1101.606 311.826, 1108.669 297.709 C 1110.538 293.973, 1111.757 290.416, 1111.379 289.804 C 1110.970 289.143, 1111.144 288.971, 1111.807 289.381 C 1112.475 289.794, 1113.734 288.482, 1114.942 286.113 C 1116.053 283.937, 1119.434 279.485, 1122.456 276.221 C 1125.479 272.956, 1127.727 270.060, 1127.452 269.785 C 1127.177 269.510, 1127.750 268.658, 1128.726 267.893 C 1130.339 266.626, 1130.376 266.659, 1129.128 268.250 C 1126.825 271.187, 1129.267 270.132, 1133.500 266.363 C 1135.700 264.403, 1136.825 263.157, 1136 263.592 C 1134.708 264.274, 1134.690 264.149, 1135.872 262.692 C 1137.358 260.860, 1138.506 260.372, 1137.500 262 C 1136.354 263.854, 1138.188 263.019, 1142.356 259.788 C 1166.232 241.284, 1177.860 225.223, 1182.020 205 C 1184.623 192.343, 1184.597 186.029, 1181.927 182.635 C 1179.491 179.538, 1176.973 179.360, 1171.500 181.900 M 1043.670 477.579 C 1031.783 479.204, 1021.583 481.880, 1009.250 486.609 C 999.390 490.389, 997.550 492.423, 999.944 496.895 C 1001.908 500.564, 1005.179 500.429, 1017.769 496.159 C 1035.401 490.180, 1044.909 488.565, 1062.500 488.565 C 1085.187 488.565, 1097.285 491.404, 1119.309 501.893 C 1126.014 505.086, 1134.425 508.664, 1138 509.843 C 1157.638 516.320, 1180.533 518.433, 1200 515.564 C 1213.960 513.507, 1222.306 510.793, 1239.983 502.567 C 1247.417 499.107, 1258.225 494.980, 1264 493.396 C 1273.841 490.697, 1275.661 490.518, 1293 490.548 C 1308.773 490.574, 1312.823 490.910, 1320.475 492.824 C 1329.109 494.984, 1338.371 498.076, 1346.218 501.417 C 1348.263 502.288, 1350.850 503, 1351.968 503 C 1354.761 503, 1358 499.519, 1358 496.517 C 1358 493.439, 1353.125 490.795, 1338 485.670 C 1320.919 479.883, 1312.720 478.568, 1293.500 478.532 C 1269.322 478.487, 1256.296 481.411, 1235 491.667 C 1228.675 494.713, 1221.025 498.081, 1218 499.152 C 1198.074 506.208, 1169.170 506.752, 1147.523 500.479 C 1143.016 499.173, 1132.509 494.914, 1124.174 491.016 C 1106.568 482.782, 1091.913 478.572, 1075.500 477.033 C 1061.950 475.763, 1056.246 475.860, 1043.670 477.579 M 280.661 500 C 278.059 501.650, 271.829 506.937, 266.816 511.750 C 249.059 528.796, 238.646 546.289, 234.487 566.061 C 232.265 576.625, 230.713 603.369, 231.179 623.087 C 231.411 632.939, 231.463 641, 231.293 641 C 231.123 641, 230.249 639.164, 229.351 636.919 C 228.132 633.872, 227.477 633.175, 226.765 634.169 C 226.053 635.162, 225.954 635.056, 226.374 633.750 C 227.115 631.447, 226.072 628.837, 224.741 629.660 C 224.122 630.043, 223.989 629.828, 224.416 629.137 C 224.820 628.482, 222.028 622.035, 218.097 614.546 C 214.121 606.973, 209.463 596.200, 207.403 589.814 C 203.086 576.432, 197.839 565.617, 190.855 555.709 C 184.710 546.991, 176.028 537.865, 174.675 538.701 C 174.113 539.048, 174.009 538.795, 174.431 538.111 C 175.716 536.032, 160.074 523.497, 146.500 515.727 C 137.397 510.517, 123.323 504.682, 121.932 505.542 C 120.507 506.423, 120.820 513.516, 122.586 520.356 C 124.656 528.371, 128.004 536.116, 129.106 535.435 C 129.585 535.138, 129.738 535.518, 129.447 536.278 C 128.743 538.111, 134.797 548.737, 141.686 557.761 C 153.104 572.719, 167.204 584.721, 183.029 592.954 C 187.368 595.212, 191.188 597.496, 191.518 598.029 C 191.848 598.563, 192.568 599, 193.118 599 C 193.668 599, 193.797 598.480, 193.405 597.845 C 192.949 597.108, 193.132 596.963, 193.912 597.446 C 194.584 597.861, 194.895 598.438, 194.604 598.730 C 194.313 599.021, 196.786 602.238, 200.100 605.879 C 213.791 620.921, 227.707 645.918, 235.455 669.383 C 236.341 672.069, 236.902 674.432, 236.700 674.634 C 236.498 674.835, 234.570 672.413, 232.416 669.250 C 227.895 662.612, 227.694 662.336, 224.923 659 C 223.782 657.625, 223.176 657.132, 223.578 657.905 C 224.063 658.836, 223.915 659.066, 223.138 658.585 C 222.494 658.187, 222.178 657.521, 222.436 657.104 C 222.693 656.688, 221.075 654.134, 218.840 651.429 C 210.300 641.095, 190.466 621.332, 196.079 628.750 C 197.222 630.261, 197.205 630.322, 195.952 629.200 C 195.153 628.485, 194.500 627.393, 194.500 626.774 C 194.500 626.154, 190.720 622.587, 186.100 618.847 C 177.138 611.593, 164.901 604.791, 153.500 600.726 C 142.641 596.855, 120.353 592.113, 111.500 591.791 C 104.070 591.521, 103.500 591.642, 103.500 593.500 C 103.500 594.931, 104.069 595.417, 105.500 595.208 C 107.164 594.966, 107.248 595.096, 106 595.982 C 104.768 596.858, 106.738 599.229, 117.047 609.274 C 123.947 615.998, 133.847 624.535, 139.047 628.244 C 149.254 635.526, 167.351 645.112, 171.343 645.352 C 172.699 645.433, 173.631 645.786, 173.415 646.136 C 173.049 646.729, 175.788 647.662, 197.952 654.491 C 209.446 658.032, 215.466 661.436, 222.175 668.187 C 235.986 682.084, 242.172 698.954, 245.575 732 C 247.806 753.669, 247.227 752, 252.519 752 C 257.846 752, 257.656 753.240, 255.509 732.500 C 252.147 700.032, 254.919 678.735, 265.305 657.237 C 269.636 648.273, 273.437 644.298, 288.311 633.182 C 303.593 621.762, 312.237 614.192, 311.449 612.918 C 311.145 612.426, 311.524 612.264, 312.290 612.558 C 314.449 613.386, 339.975 586.382, 348.134 574.638 C 358.084 560.317, 364.406 547.357, 366.845 536.279 C 368.462 528.934, 367.030 529.057, 349.873 537.735 C 328.553 548.517, 306.003 563.578, 307.515 566.025 C 307.800 566.485, 307.506 567.187, 306.862 567.585 C 306.131 568.037, 305.959 567.876, 306.405 567.155 C 306.797 566.520, 306.699 566, 306.186 566 C 304.898 566, 292.471 579.217, 286.912 586.500 C 274.650 602.565, 267.268 617.955, 256.213 650.500 C 253.739 657.784, 250.231 673.179, 249.363 680.568 C 248.664 686.514, 246.597 689.679, 246.360 685.165 C 246.283 683.699, 245.197 677.325, 243.945 671 C 242.052 661.427, 241.657 656.065, 241.591 639 C 241.479 610.323, 243.456 604.015, 257.708 587.564 C 280.459 561.303, 287.550 545.258, 288.722 517.385 C 289.313 503.333, 288.669 497, 286.650 497 C 285.958 497, 283.263 498.350, 280.661 500 M 1051 524.695 C 1035.031 526.405, 1017.225 531.388, 1004.747 537.638 C 980.049 550.011, 973.098 551.290, 933.062 550.836 C 897.185 550.428, 890.396 551.462, 888.578 557.611 C 888.184 558.942, 888.638 560.567, 889.808 562.011 L 891.662 564.301 902.521 562.520 C 911.444 561.056, 915.528 560.896, 925.440 561.619 C 943.361 562.928, 967.442 562.678, 975.500 561.100 C 984.673 559.304, 990.689 557.079, 1007 549.450 C 1029.978 538.702, 1046.420 535.255, 1069.872 536.268 C 1089.573 537.119, 1102.415 540.501, 1123 550.259 C 1146.775 561.528, 1155.784 563.500, 1183.500 563.500 C 1209.102 563.500, 1214.676 562.299, 1238 551.762 C 1246.525 547.911, 1257.747 543.682, 1262.938 542.364 C 1288.404 535.903, 1314.901 537.902, 1341.500 548.292 C 1354.863 553.512, 1354.615 553.476, 1357.483 550.608 C 1360.674 547.417, 1360.688 544.497, 1357.523 542.423 C 1352.961 539.434, 1334.612 532.831, 1323.500 530.179 C 1313.478 527.787, 1310.721 527.558, 1292.500 527.600 C 1273.331 527.645, 1272.005 527.778, 1260.583 530.797 C 1253.736 532.607, 1243.525 536.333, 1236.583 539.556 C 1213.319 550.355, 1204.453 552.467, 1182.500 552.436 C 1160.442 552.405, 1148.731 549.542, 1125.580 538.525 C 1102.435 527.510, 1073.981 522.234, 1051 524.695 M 1041.500 573.050 C 1031.515 574.586, 1018.527 578.718, 1006.705 584.120 C 979.953 596.342, 969.054 598.532, 939.032 597.713 C 917.456 597.125, 910.842 595.945, 885 588.070 C 865.641 582.170, 856.061 580.631, 839 580.677 C 818.317 580.734, 808.130 583.170, 778.750 595.084 C 768.355 599.299, 768 599.544, 768 602.521 C 768 609.742, 773.316 609.750, 791.770 602.555 C 814.374 593.742, 819.741 592.605, 839 592.549 C 857.911 592.493, 864.021 593.527, 886.241 600.542 C 907.392 607.219, 918.416 609.101, 940 609.719 C 969.301 610.559, 984.104 607.623, 1008.232 596.186 C 1028.556 586.552, 1040.797 583.712, 1062 583.712 C 1083.710 583.712, 1098.617 587.199, 1117.414 596.675 C 1137.453 606.778, 1154.615 611.424, 1176.268 612.607 C 1198.234 613.808, 1213.701 610.649, 1237.820 600.036 C 1246.444 596.242, 1257.100 592.227, 1261.500 591.115 C 1287.265 584.604, 1312.675 586.077, 1338.162 595.560 C 1344.725 598.002, 1351.353 600, 1352.892 600 C 1358.089 600, 1360.931 593.992, 1357.250 590.786 C 1355.215 589.015, 1341.399 583.587, 1332 580.867 C 1312.029 575.088, 1287.042 573.923, 1267.199 577.846 C 1254.391 580.378, 1245.667 583.306, 1232.087 589.632 C 1212.398 598.802, 1198.224 601.605, 1176 600.721 C 1157.040 599.968, 1144.285 596.556, 1123.375 586.647 C 1112.371 581.432, 1103.631 578.070, 1095.432 575.898 C 1084.511 573.004, 1081.975 572.711, 1065.500 572.432 C 1055.600 572.264, 1044.800 572.542, 1041.500 573.050 M 1050.500 617.630 C 1033.503 619.471, 1013.145 625.623, 1001.537 632.425 C 999.200 633.795, 994.860 635.847, 991.894 636.986 C 988.927 638.124, 985.600 639.476, 984.500 639.991 C 980.255 641.977, 970.020 644.048, 958.756 645.201 C 938.247 647.299, 916.539 644.377, 891.374 636.130 C 849.190 622.305, 821.547 622.801, 783.186 638.070 C 768.862 643.772, 766.779 645.487, 769.372 649.444 C 771.778 653.117, 775.207 653.358, 783.276 650.422 C 814.484 639.065, 822.279 637.491, 843 638.359 C 857.798 638.980, 869.550 641.192, 883.500 645.985 C 907.946 654.383, 922.731 657, 945.738 657 C 971.583 657, 985.489 653.698, 1009.500 641.859 C 1027.903 632.785, 1038.564 629.994, 1057.500 629.293 C 1080.886 628.426, 1096.256 632.115, 1120.366 644.382 C 1142.910 655.851, 1166.842 661.027, 1191 659.659 C 1210.512 658.554, 1221.296 655.700, 1240 646.692 C 1272.959 630.817, 1305.803 629.731, 1340.108 643.381 C 1346.493 645.921, 1352.580 648, 1353.636 648 C 1358.298 648, 1361.504 642.917, 1359.166 639.234 C 1358.185 637.689, 1344.361 631.779, 1334.060 628.501 C 1322.806 624.919, 1310.983 622.954, 1297 622.340 C 1275.539 621.399, 1258.043 625.329, 1234.035 636.484 C 1212.384 646.544, 1202.422 648.570, 1178.767 647.721 C 1167.149 647.304, 1161.110 646.570, 1153.500 644.652 C 1141.651 641.664, 1139.197 640.692, 1123.547 632.779 C 1109.501 625.678, 1097.773 621.514, 1086 619.449 C 1077.136 617.894, 1057.400 616.882, 1050.500 617.630 M 821.500 672.448 C 817.100 673.136, 810.816 674.482, 807.536 675.440 C 800.295 677.553, 780.161 685.622, 778.324 687.146 C 776.523 688.641, 776.655 692.512, 778.571 694.429 C 781.094 696.951, 785.378 696.288, 796.791 691.609 C 802.681 689.194, 811.899 686.211, 817.276 684.980 C 825.971 682.989, 828.843 682.801, 843.276 683.283 C 857.365 683.753, 861.394 684.291, 873.893 687.372 C 891.039 691.598, 905.692 693.463, 915.762 692.702 C 923.828 692.092, 926 690.967, 926 687.401 C 926 683.361, 922.641 682.267, 908.500 681.700 C 897.889 681.275, 892.938 680.510, 881.562 677.537 C 856.911 671.095, 839.562 669.625, 821.500 672.448" stroke="none" fill="black" fill-rule="evenodd"/>
</svg>