<svg xmlns="http://www.w3.org/2000/svg" width="1024" height="1024" viewBox="0 0 1024 1024" version="1.1">
	<rect x="0" y="0" width="100%" height="100%" fill="#fff" />
	<path fill-opacity="0.141" d="M 0 512.001 L 0 1024.002 512.250 1023.751 L 1024.500 1023.500 1024.751 511.750 L 1025.002 0 512.501 0 L 0 0 0 512.001 M 0.496 512.500 C 0.496 794.100, 0.610 909.151, 0.750 768.168 C 0.890 627.186, 0.890 396.786, 0.750 256.168 C 0.610 115.551, 0.496 230.900, 0.496 512.500 M 564.588 7.730 C 559.190 26.983, 555.405 38.539, 551.291 48.336 C 535.494 85.948, 504.320 119.392, 467.222 138.524 C 463.219 140.589, 460.138 142.472, 460.375 142.709 C 461.518 143.852, 480.940 132.300, 493.500 123.007 C 523.607 100.730, 546.668 68.545, 558.348 32.500 C 563.010 18.114, 567.171 3.014, 566.790 1.869 C 566.623 1.369, 565.632 4.006, 564.588 7.730 M 452 145.621 C 437.531 152.213, 416.368 158.282, 396 161.679 C 387.332 163.125, 379.045 163.432, 348.500 163.442 C 322.074 163.450, 315.358 163.653, 325 164.153 C 343.203 165.098, 373.251 164.934, 385.500 163.824 C 406.183 161.949, 437.292 153.817, 453.500 146.048 C 460.874 142.513, 459.610 142.154, 452 145.621 M 498 269.655 C 464.802 272.837, 442.775 278.755, 416.402 291.579 C 373.931 312.230, 339.987 346.118, 318.203 389.615 C 304.956 416.067, 297.753 445.428, 296.335 478.756 L 295.686 494.011 288.433 497.500 C 280.082 501.517, 274.110 507.575, 271.374 514.805 C 269.814 518.926, 269.552 524.072, 269.232 556.902 C 268.919 588.941, 269.105 595.395, 270.524 601.902 C 276.236 628.101, 297.622 647.006, 321.500 646.966 C 331.897 646.949, 340.121 641.216, 342.859 632.078 C 344.370 627.034, 344.459 510.194, 342.956 504.781 C 341.162 498.320, 334.321 492, 329.121 492 C 328.033 492, 326.372 491.229, 325.429 490.287 C 323.935 488.792, 323.792 487.100, 324.308 477.037 C 326.201 440.123, 341.568 401.833, 366.335 372.323 C 394.600 338.644, 432.750 315.625, 474.500 307.058 C 526.494 296.388, 580.547 308.619, 624.507 341.001 C 648.789 358.887, 669.218 383.439, 681.742 409.786 C 692.468 432.352, 698.662 455.769, 699.677 477.595 L 700.287 490.690 695.845 491.809 C 689.400 493.432, 684.812 496.876, 682.263 502.004 L 680.026 506.506 679.984 568.503 L 679.941 630.500 682.728 635.952 C 687.784 645.840, 698.811 649.284, 713.320 645.505 C 733.640 640.212, 749.629 622.237, 753.542 600.287 C 755.278 590.551, 755.561 530.430, 753.913 521.434 C 751.753 509.637, 745.532 502.111, 733.628 496.892 L 728.170 494.500 727.547 484 C 724.459 431.956, 714.829 400.902, 690.463 364.416 C 676.502 343.510, 665.535 331.543, 646.205 316.119 C 613.444 289.979, 573.549 274.035, 531 270.077 C 520.213 269.073, 505.973 268.891, 498 269.655 M 496 354.682 C 482.528 356.073, 460.816 362.560, 448 369.021 C 413.337 386.499, 386.908 419.313, 377.443 456.626 C 370.323 484.693, 371.848 517.238, 381.536 544 C 386.884 558.773, 396.449 575.062, 402.632 579.925 C 406.293 582.805, 411.451 582.640, 414.545 579.545 C 418.245 575.846, 417.787 571.661, 412.901 564.500 C 403.951 551.387, 396.492 532.548, 393.546 515.619 C 391.572 504.281, 391.541 481.894, 393.483 470.760 C 396.354 454.292, 404.025 436.447, 414.012 423 C 420.225 414.633, 435.801 399.475, 443.500 394.303 C 474.613 373.399, 513.270 367.601, 548.156 378.605 C 584.223 389.983, 614.404 419.514, 625.892 454.668 C 629.997 467.230, 631.418 477.388, 631.324 493.500 C 631.203 514.351, 627.380 530.674, 617.970 550.513 C 615.880 554.920, 612.229 560.963, 609.857 563.942 C 606.426 568.251, 605.545 570.159, 605.545 573.285 C 605.545 578.171, 609.416 582.012, 614.306 581.978 C 618.128 581.951, 620.366 580.243, 625.863 573.155 C 637.170 558.575, 645.857 536.396, 649.031 514 C 650.427 504.158, 650.404 480.465, 648.990 471 C 642.975 430.722, 621.010 396.955, 586.419 374.808 C 572.866 366.131, 550.769 358.036, 533.872 355.558 C 524.335 354.160, 505.312 353.720, 496 354.682 M 495.729 409.038 C 465.211 414.171, 436.605 438.123, 424.948 468.304 C 420.031 481.034, 418.683 489.618, 419.264 504.488 C 419.850 519.451, 422.688 530.808, 428.703 542.255 C 432.787 550.026, 435.972 553, 440.212 553 C 443.909 553, 449 548.172, 449 544.666 C 449 543.298, 446.981 537.976, 444.514 532.839 C 434.459 511.906, 434.418 491.046, 444.392 470.581 C 457.391 443.906, 484.567 425.968, 511.910 426.015 C 523.113 426.034, 531.441 428.064, 542.500 433.472 C 562.234 443.122, 576.318 459.943, 583.130 482 C 584.968 487.951, 585.442 491.772, 585.421 500.500 C 585.390 513.829, 583.661 521.068, 577.492 533.693 C 575.021 538.750, 573 543.778, 573 544.867 C 573 545.956, 574.165 548.231, 575.589 549.923 C 577.645 552.367, 578.961 553, 581.985 553 C 585.129 553, 586.363 552.350, 589.068 549.270 C 596.438 540.876, 602.645 522.465, 603.681 505.924 C 606.513 460.715, 574.712 418.885, 530.369 409.490 C 523.023 407.934, 503.787 407.682, 495.729 409.038 M 502 460.309 C 489.922 463.808, 481.802 470.575, 476.282 481.743 C 472.596 489.202, 472.527 489.559, 472.165 502.915 C 471.962 510.387, 472.276 519.083, 472.862 522.240 C 475.206 534.859, 483.332 545.949, 493.780 550.787 C 498.851 553.135, 500.747 553.439, 510.500 553.468 C 516.826 553.486, 523.454 552.932, 526.099 552.162 C 535.874 549.319, 545.830 538.784, 549.599 527.296 C 552.210 519.334, 552.323 495.157, 549.787 486.974 C 546.379 475.978, 536.161 465.010, 526 461.440 C 519.833 459.274, 507.570 458.696, 502 460.309 M 487 569.338 C 475.166 572.082, 466.801 579.234, 463.999 589.004 C 463.038 592.353, 465.173 606.749, 472.079 643.500 C 476.641 667.775, 477.157 669.211, 482.796 673.351 C 488.188 677.308, 495.434 680.411, 501.750 681.466 L 506 682.176 506 698.088 L 506 714 485.723 714 C 461.786 714, 460.991 714.251, 461.015 721.807 C 461.046 731.319, 459.250 731, 512.823 731 C 564.787 731, 562.610 731.329, 563.684 723.316 C 564.161 719.762, 563.865 718.774, 561.667 716.576 L 559.091 714 538.045 714 L 517 714 517 698.229 L 517 682.458 523.161 681.287 C 531.108 679.777, 541.028 674.871, 544.781 670.596 C 547.376 667.641, 548.112 665.249, 550.852 650.867 C 556.028 623.700, 561 594.888, 561 592.058 C 561 587.989, 556.253 579.355, 552.160 575.978 C 544.436 569.607, 539.936 568.684, 515 568.357 C 499.338 568.152, 490.829 568.450, 487 569.338 M 318.571 971.571 C 316.181 973.962, 316.551 979.572, 319.223 981.443 C 322.380 983.655, 324.711 983.380, 327.641 980.450 C 331.890 976.201, 329.065 970, 322.880 970 C 321.375 970, 319.436 970.707, 318.571 971.571" stroke="none" fill="black" fill-rule="evenodd"/>
	<path fill-opacity="0.384" d="M 0 512 L 0 1024 295.952 1024 L 591.905 1024 595.970 1015.750 C 601.743 1004.034, 611.966 990.119, 623 978.960 C 637.217 964.581, 640.718 962.207, 693 931.486 C 702.075 926.154, 712.457 919.605, 716.070 916.934 C 731.143 905.792, 745.738 887.431, 762.520 858.500 C 771.724 842.632, 787.750 816.356, 794.579 805.937 C 805.161 789.792, 816.652 778.297, 834.304 766.197 C 846.675 757.717, 862.669 750.032, 892 738.474 C 954.331 713.912, 985.451 694.175, 1017.250 659.037 L 1024 651.579 1024 734.712 L 1024 817.845 1020.750 818.857 C 1010.221 822.135, 1005.189 822.497, 974.179 822.209 C 939.064 821.883, 930.408 822.768, 917.280 828.024 C 901.734 834.249, 886.861 846.594, 876.870 861.563 C 870.507 871.097, 862.301 887.782, 854.568 906.909 C 841.628 938.913, 835.181 949.952, 821.479 963.566 C 807.479 977.478, 793.870 984.468, 768.833 990.610 C 752.881 994.523, 744.665 997.459, 737 1001.987 C 730.206 1005.999, 720.946 1013.351, 715.039 1019.422 L 710.577 1024.006 867.539 1023.753 L 1024.500 1023.500 1024.751 511.750 L 1025.002 0 796.639 -0 L 568.277 -0 564.511 13.250 C 552.957 53.901, 539.907 78.431, 517.261 102.064 C 486.389 134.281, 448.139 153.808, 398.457 162.715 C 389.996 164.232, 382.611 164.497, 349.311 164.477 C 327.757 164.465, 309.837 164.170, 309.489 163.822 C 309.140 163.474, 309.968 161.427, 311.327 159.274 C 316.511 151.062, 331.085 124.815, 339.520 108.500 C 364.375 60.427, 374.042 43.447, 391.185 17.750 L 403.027 0 201.513 0 L 0 0 0 512 M 0.496 512.500 C 0.496 794.100, 0.610 909.151, 0.750 768.168 C 0.890 627.186, 0.890 396.786, 0.750 256.168 C 0.610 115.551, 0.496 230.900, 0.496 512.500 M 138.158 75.753 C 134.179 81.954, 130.527 90.289, 128.337 98.169 C 125.987 106.620, 125.909 131.397, 128.200 141.500 C 129.072 145.350, 129.677 148.620, 129.544 148.766 C 129.411 148.912, 126.794 145.762, 123.730 141.766 C 112.423 127.022, 94.962 114.723, 81.344 111.910 C 73.246 110.238, 71.719 110.903, 72.555 115.737 C 74.684 128.052, 79.482 139.531, 87.117 150.575 C 92.227 157.967, 104.700 170.486, 110.250 173.793 C 114.469 176.307, 113.540 176.855, 107.750 175.267 C 100.281 173.218, 81.204 173.252, 72.710 175.329 C 64.635 177.304, 59.722 179.665, 60.269 181.308 C 60.849 183.048, 75.355 191.613, 81.886 194.072 C 102.157 201.703, 125.027 202.343, 144.500 195.824 C 148.052 194.635, 149.116 194.702, 154 196.424 C 160.975 198.884, 180.208 199.715, 190.917 198.021 C 204.655 195.847, 224.010 186.941, 230.874 179.635 C 233.071 177.295, 233.095 177.123, 231.344 176.211 C 223.201 171.969, 196.195 172.197, 183.679 176.613 C 181.484 177.388, 179.534 177.867, 179.346 177.679 C 179.157 177.491, 181.110 175.823, 183.686 173.974 C 193.920 166.624, 206.373 152.074, 212.913 139.824 C 219.969 126.609, 225.397 104.099, 222.030 102.019 C 219.138 100.231, 204.157 106.856, 195.350 113.818 C 184.311 122.543, 170.823 138.495, 165.347 149.301 C 163.982 151.995, 162.689 154.022, 162.473 153.806 C 162.257 153.590, 162.504 149.383, 163.022 144.457 C 165.027 125.393, 163.290 107.874, 158.046 94.276 C 154.257 84.452, 145.589 71, 143.047 71 C 141.948 71, 139.981 72.912, 138.158 75.753 M 139.650 82.511 C 135.579 89.794, 132.229 98.997, 130.932 106.456 C 129.200 116.422, 130.305 133.294, 133.442 144.778 C 136.984 157.743, 147.262 182.071, 148.623 180.710 C 149.957 179.376, 156.176 158.707, 157.664 150.659 C 159.954 138.281, 159.963 115.914, 157.682 106.681 C 154.920 95.504, 145.981 78, 143.035 78 C 142.560 78, 141.036 80.030, 139.650 82.511 M 215 108.018 C 210.985 109.111, 203.958 112.919, 197.500 117.501 C 182.870 127.882, 170.066 145.725, 158.218 172.242 C 150.368 189.810, 150.104 189.062, 161.995 182.954 C 184.067 171.616, 199.766 156.305, 209.874 136.257 C 213.569 128.929, 218.287 113.190, 217.823 109.742 C 217.550 107.706, 217.117 107.442, 215 108.018 M 78 118.074 C 78 122.021, 82.966 134.917, 87.224 142.026 C 98.349 160.602, 115.167 174.980, 137.483 184.992 C 143.153 187.536, 144 187.694, 143.997 186.208 C 143.993 183.592, 127.839 155.021, 121.713 146.796 C 111.377 132.917, 98.072 121.983, 86.623 117.959 C 79.528 115.465, 78 115.485, 78 118.074 M 194.500 177.677 C 183.108 180.209, 174.936 182.872, 166.750 186.719 C 161.387 189.240, 157 191.638, 157 192.048 C 157 193.217, 168.925 195, 176.744 195 C 186.005 195, 196.866 192.867, 206.342 189.187 C 213.999 186.214, 224 180.460, 224 179.027 C 224 178.606, 222.313 177.983, 220.250 177.642 C 216.091 176.954, 197.637 176.979, 194.500 177.677 M 79.500 178.637 C 78.400 178.920, 75.707 179.613, 73.516 180.177 L 69.532 181.203 72.013 183.212 C 84.639 193.436, 111.034 198.620, 129.603 194.524 C 133.947 193.566, 138.163 192.420, 138.972 191.977 C 140.794 190.981, 133.088 187.402, 118 182.236 C 108.351 178.932, 106.446 178.620, 94.500 178.381 C 87.350 178.238, 80.600 178.353, 79.500 178.637 M 970.337 226.477 C 964.377 230.651, 968.528 240.339, 975.523 238.584 C 981.208 237.157, 982.712 231.621, 978.545 227.455 C 975.737 224.646, 973.356 224.362, 970.337 226.477 M 939 253 C 934.794 257.206, 937.939 264.333, 944 264.333 C 950.061 264.333, 953.206 257.206, 949 253 C 947.889 251.889, 945.667 251, 944 251 C 942.333 251, 940.111 251.889, 939 253 M 975 266 C 972.742 268.258, 972.377 272.782, 974.250 275.295 C 974.938 276.218, 976.933 277.254, 978.684 277.598 C 981.259 278.104, 982.358 277.733, 984.434 275.657 C 987.656 272.435, 987.690 269.600, 984.545 266.455 C 981.572 263.482, 977.703 263.297, 975 266 M 486.708 270.523 C 445.438 275.516, 404.797 292.826, 374.162 318.457 C 324.537 359.977, 296.853 418.305, 295.915 483.321 C 295.761 494.008, 295.727 494.153, 293.144 495.135 C 283.072 498.965, 275.365 505.521, 271.886 513.221 C 269.521 518.454, 269.497 518.839, 269.196 557.776 C 268.910 594.889, 269.007 597.466, 270.957 604.575 C 273.945 615.466, 278.143 623.054, 285.490 630.842 C 295.497 641.450, 307.767 647, 321.214 647 C 331.948 647, 338.191 643.204, 342.198 634.239 C 344.006 630.196, 344.101 626.833, 344.068 568.283 L 344.032 506.587 341.539 501.490 C 338.919 496.135, 334.572 492.867, 328.301 491.540 C 325.453 490.938, 325.032 490.395, 324.463 486.599 C 323.649 481.172, 325.531 462.106, 327.999 450.776 C 344.282 376.036, 407.813 317.153, 484.780 305.466 C 496.280 303.720, 522.295 303.483, 534.603 305.013 C 599.431 313.069, 657.159 355.297, 683.442 413.890 C 693.181 435.600, 699.171 459.993, 699.375 478.777 L 699.500 490.295 694.061 492.151 C 687.780 494.294, 684.675 496.884, 681.653 502.500 C 679.515 506.472, 679.500 506.939, 679.500 568.527 L 679.500 630.553 682.055 635.518 C 683.601 638.523, 686.298 641.669, 688.890 643.491 C 692.647 646.132, 694.170 646.542, 701.342 646.843 C 718.176 647.548, 733.942 638.882, 744.375 623.188 C 754.444 608.042, 755.277 602.670, 754.798 556 C 754.462 523.277, 754.229 518.986, 752.545 514.535 C 750.080 508.024, 743.130 501.174, 734.854 497.100 L 728.274 493.861 727.578 480.680 C 725.697 445.109, 719.140 417.398, 706.466 391.460 C 684.470 346.442, 649.730 311.643, 605.603 290.423 C 568.708 272.681, 526.817 265.670, 486.708 270.523 M 913.073 283.635 C 911.933 285.084, 911 287.109, 911 288.135 C 911 293.466, 920.345 296.201, 923.443 291.777 C 928.545 284.493, 918.563 276.655, 913.073 283.635 M 945.707 298.016 C 940.449 302.152, 943.109 310, 949.768 310 C 951.046 310, 953.239 308.852, 954.641 307.450 C 960.570 301.521, 952.322 292.812, 945.707 298.016 M 979.337 310.160 C 975.629 311.991, 974.900 317.900, 978 321 C 982.311 325.311, 989.333 322.176, 989.333 315.939 C 989.333 310.915, 984.024 307.845, 979.337 310.160 M 870.503 315.997 C 866.771 320.120, 869.708 328, 874.976 328 C 878.126 328, 882 324.099, 882 320.927 C 882 314.940, 874.406 311.684, 870.503 315.997 M 909.455 325.455 C 908.105 326.805, 907 328.850, 907 330 C 907 332.616, 911.271 337, 913.820 337 C 914.871 337, 916.916 336.067, 918.365 334.927 C 921.680 332.320, 921.880 327.898, 918.811 325.039 C 915.886 322.313, 912.443 322.466, 909.455 325.455 M 948.490 344.384 C 946.315 345.974, 946.033 352.129, 948.024 354.529 C 949.774 356.637, 956.319 356.410, 958.345 354.171 C 960.542 351.744, 960.450 346.717, 958.171 344.655 C 955.945 342.640, 951.062 342.503, 948.490 344.384 M 885.352 352.993 C 882.582 354.111, 881.886 355.315, 881.776 359.177 C 881.609 365.055, 888.839 368.161, 893 364 C 895.878 361.122, 895.589 356.608, 892.365 354.073 C 889.501 351.819, 888.604 351.681, 885.352 352.993 M 488.500 355.555 C 469.605 358.748, 448.697 367.121, 432.398 378.022 C 422.241 384.814, 402.811 404.246, 396.015 414.407 C 385.385 430.302, 377.990 449.009, 374.539 468.738 C 372.561 480.044, 372.527 505.533, 374.473 517.530 C 378.439 541.987, 390.431 569.147, 401.587 578.942 C 408.409 584.932, 417 581.937, 417 573.570 C 417 570.794, 416.048 568.471, 413.470 564.959 C 406.269 555.149, 398.592 536.982, 394.472 520 C 391.937 509.552, 391.394 485.306, 393.422 473.175 C 400.613 430.171, 430.527 394.858, 472.225 380.151 C 496.594 371.556, 524.912 371.200, 549.344 379.181 C 584.773 390.755, 615.549 421.329, 625.864 455.200 C 631.165 472.608, 632.532 495, 629.452 514 C 626.711 530.918, 617.256 555.032, 610.161 563.198 C 604.216 570.043, 603.549 574.122, 607.589 578.923 C 610.354 582.209, 615.143 583.064, 619.054 580.971 C 622.135 579.322, 630.462 567.650, 635.456 557.980 C 645.643 538.256, 650.367 517.518, 650.373 492.500 C 650.382 452.738, 637.676 421.377, 610.627 394.403 C 583.196 367.048, 550.565 353.828, 511.151 354.102 C 503.093 354.158, 492.900 354.812, 488.500 355.555 M 974.655 373.829 C 972.410 376.309, 972.570 380.570, 975 383 C 979.104 387.104, 986 384.345, 986 378.598 C 986 376.683, 985.237 374.619, 984.171 373.655 C 981.744 371.458, 976.717 371.550, 974.655 373.829 M 925.315 377.016 C 918.470 379.745, 920.533 390, 927.927 390 C 931.099 390, 935 386.126, 935 382.976 C 935 378.809, 929.425 375.378, 925.315 377.016 M 884 398 C 881.602 400.398, 881.433 403.746, 883.557 406.777 C 884.714 408.429, 886.117 409, 889.022 409 C 893.392 409, 895 407.177, 895 402.221 C 895 396.555, 888.094 393.906, 884 398 M 500.500 408.119 C 462.422 412.832, 430.143 442.258, 420.856 480.726 C 416.339 499.434, 418.976 522.986, 427.501 540.070 C 432.536 550.160, 435.333 553, 440.233 553 C 448.408 553, 451.472 545.074, 446.545 536.668 C 442.486 529.741, 439.181 519.758, 437.889 510.518 C 432.801 474.153, 459.102 437.354, 496.958 427.871 C 518.855 422.386, 543.296 429.616, 561.365 446.924 C 577.407 462.292, 585.112 479.857, 585.087 501.005 C 585.072 513.685, 582.925 522.793, 577.440 533.454 C 574.998 538.199, 573 542.942, 573 543.994 C 573 547.515, 575.247 550.889, 578.676 552.516 C 581.844 554.020, 582.326 554.006, 585.787 552.315 C 591.139 549.699, 599.252 533.391, 602.138 519.447 C 604.772 506.718, 604.312 488.663, 601.044 476.500 C 591.265 440.109, 559.729 412.647, 522.500 408.104 C 512.458 406.878, 510.516 406.880, 500.500 408.119 M 952.944 411.844 C 950.318 413.971, 949.837 419.318, 952.083 421.423 C 955.002 424.160, 958.871 424.220, 961.521 421.570 C 967.883 415.207, 959.929 406.188, 952.944 411.844 M 912.223 427.557 C 909.363 429.560, 909.131 435.904, 911.829 438.345 C 916.051 442.166, 923 438.841, 923 433 C 923 427.192, 917.040 424.182, 912.223 427.557 M 500.286 460.394 C 489.832 463.801, 479.847 472.728, 475.245 482.780 C 472.855 488, 472.590 489.875, 472.209 504.227 C 471.843 518.019, 472.045 520.788, 473.854 526.727 C 476.544 535.558, 480.656 541.891, 486.912 546.836 C 494.202 552.598, 497.596 553.500, 512 553.500 C 523.626 553.500, 524.893 553.307, 530.125 550.738 C 539.966 545.905, 547.389 536.283, 550.505 524.320 C 552.283 517.495, 552.502 498.496, 550.891 490.799 C 548.362 478.708, 539.351 467.353, 528.218 462.228 C 521.300 459.043, 507.261 458.121, 500.286 460.394 M 486.962 568.885 C 476.934 570.958, 466.418 579.862, 464.063 588.275 C 462.958 592.222, 463.297 595.279, 467.474 619.078 C 474.660 660.020, 476.483 667.851, 479.581 671.085 C 483.419 675.091, 492.568 679.642, 499.750 681.117 L 506 682.400 506 698.200 L 506 714 485.455 714 L 464.909 714 462.333 716.576 C 460.135 718.774, 459.839 719.762, 460.316 723.316 C 461.392 731.341, 459.093 731, 512.156 731 L 559.091 731 561.545 728.545 C 564.868 725.223, 564.936 719.228, 561.686 716.174 C 559.463 714.087, 558.548 714, 538.686 714 L 518 714 518 698.136 L 518 682.272 522.283 681.685 C 529.445 680.703, 537.903 676.893, 542.907 672.394 C 546.817 668.878, 547.858 667.190, 548.814 662.813 C 551.802 649.140, 561 596.327, 561 592.848 C 561 584.297, 554.710 575.986, 544.762 571.392 L 538.500 568.500 514.500 568.327 C 501.300 568.231, 488.908 568.483, 486.962 568.885 M 232.455 886.455 C 231.105 887.805, 230 889.850, 230 891 C 230 893.698, 234.302 898, 237 898 C 239.698 898, 244 893.698, 244 891 C 244 888.302, 239.698 884, 237 884 C 235.850 884, 233.805 885.105, 232.455 886.455 M 189.557 905.223 C 186.227 909.976, 189.183 916, 194.845 916 C 199.014 916, 201.470 912.799, 201.118 907.821 C 200.777 902.979, 192.440 901.105, 189.557 905.223 M 268.059 906.941 C 263.885 911.115, 266.916 918, 272.929 918 C 278.456 918, 281.459 912.438, 278.257 908.130 C 275.693 904.681, 270.880 904.120, 268.059 906.941 M 220.174 927.314 C 215.880 931.886, 218.559 938, 224.857 938 C 229.576 938, 231 936.576, 231 931.857 C 231 925.487, 224.467 922.746, 220.174 927.314 M 150.655 927.829 C 148.302 930.429, 148.474 936.648, 150.934 937.965 C 156.221 940.794, 162 937.824, 162 932.277 C 162 926.998, 154.181 923.932, 150.655 927.829 M 303.571 928.571 C 301.181 930.962, 301.551 936.572, 304.223 938.443 C 309.060 941.831, 315 939.115, 315 933.515 C 315 929.232, 312.773 927, 308.500 927 C 306.654 927, 304.436 927.707, 303.571 928.571 M 259.655 945.829 C 257.458 948.256, 257.550 953.283, 259.829 955.345 C 262.142 957.439, 267.373 957.484, 269.429 955.429 C 271.819 953.038, 271.449 947.428, 268.777 945.557 C 265.794 943.467, 261.681 943.590, 259.655 945.829 M 185.272 953.211 C 180.562 955.484, 181.165 963.165, 186.192 964.917 C 191.141 966.642, 194.425 964.514, 194.803 959.336 C 195.050 955.955, 194.685 954.893, 192.830 953.594 C 190.230 951.772, 188.440 951.682, 185.272 953.211 M 129 967 C 125.017 970.983, 127.647 978, 133.122 978 C 138.178 978, 140 976.416, 140 972.022 C 140 969.117, 139.429 967.714, 137.777 966.557 C 134.746 964.433, 131.398 964.602, 129 967 M 224 972 C 219.910 976.090, 222.954 983, 228.845 983 C 232.439 983, 235 980.223, 235 976.326 C 235 970.565, 228.135 967.865, 224 972 M 317.922 971.593 C 315.900 974.030, 316.263 979.732, 318.550 981.462 C 325.079 986.399, 333.116 978.894, 328.443 972.223 C 326.536 969.500, 319.985 969.108, 317.922 971.593 M 274 977.673 C 270.050 979.140, 268.619 985.476, 271.571 988.429 C 273.884 990.741, 280.659 990.505, 281.965 988.066 C 283.388 985.406, 283.265 980.465, 281.744 979.203 C 280.069 977.812, 275.863 976.982, 274 977.673" stroke="none" fill="black" fill-rule="evenodd"/>
	<path fill-opacity="0.237" d="M 568.658 0.750 C 568.405 1.163, 566.780 6.450, 565.047 12.500 C 554.075 50.800, 543.459 72.082, 523.406 95.983 C 493.105 132.098, 442.473 157.753, 389 164.086 C 377.541 165.443, 346.430 165.772, 324.500 164.767 L 308.500 164.035 301.537 174.767 C 282.524 204.076, 262.069 228.513, 244.500 242.909 C 236.309 249.621, 223.511 258.573, 216.717 262.343 C 214.086 263.803, 210.936 265.650, 209.717 266.448 C 203.571 270.467, 177.084 280.583, 164 283.908 C 134.457 291.415, 94.537 292.521, 65 286.650 C 43.169 282.311, 18.305 274.298, 3.951 266.975 L 0 264.959 0 644.480 L 0 1024 236.250 1023.996 L 472.500 1023.993 475.987 1017.246 C 484.773 1000.251, 501.683 978.605, 515.500 966.668 C 519.900 962.866, 528.488 956.459, 534.584 952.430 C 547.133 944.136, 576.050 928.793, 588.318 923.920 C 617.291 912.412, 642.980 895.824, 658.175 878.812 C 664.524 871.705, 679.631 851.476, 682.073 846.813 C 682.740 845.541, 689.586 835.050, 697.287 823.500 C 730.032 774.389, 751.064 751.486, 781.565 731.724 C 800.807 719.256, 819.673 710.877, 852 700.439 C 881.394 690.948, 895.744 684.613, 911 674.390 C 941.249 654.120, 956.469 627.500, 956.104 595.500 C 955.907 578.301, 952.518 564.945, 944.124 548.289 C 935.570 531.316, 925.418 519.374, 900.500 496.977 C 887.396 485.198, 877.902 475.123, 870.364 465 C 839.022 422.903, 827.126 365.167, 838.531 310.500 C 840.389 301.596, 843.328 290.777, 845.459 285 C 848.535 276.659, 859.789 254.554, 864.551 247.500 C 889.987 209.820, 931.767 181.751, 980.617 169.523 C 992.672 166.506, 1008.502 164.014, 1015.668 164.006 C 1018.511 164.003, 1021.548 163.727, 1022.418 163.393 C 1023.843 162.846, 1024 154.690, 1024 81.393 L 1024 0 978.216 0 L 932.432 0 927.178 5.319 C 923.114 9.435, 921.384 12.207, 919.535 17.569 C 914.372 32.544, 913.506 38.277, 912.450 64.500 C 911.508 87.891, 910.792 94.439, 907.858 106.500 C 903.453 124.610, 896.769 141.406, 890.493 150.143 C 888.572 152.817, 886.986 155.341, 886.968 155.752 C 886.895 157.491, 881.821 162.145, 880.537 161.653 C 878.401 160.833, 877.500 153.076, 877.500 135.500 C 877.500 100.841, 881.805 80.307, 893.729 58.088 C 904.626 37.784, 914.953 16.498, 914.056 16.192 C 911.265 15.241, 883.581 35.055, 868 49.153 C 858.455 57.791, 855.509 60.816, 849.542 68.107 C 842.576 76.619, 839.991 90.585, 839.383 123 C 838.921 147.583, 838.042 154.726, 833.351 172 C 827.510 193.510, 822.351 205.641, 812.551 220.914 C 807.318 229.068, 805.397 230.858, 804.620 228.303 C 801.783 218.965, 800.983 194.172, 802.983 177.558 C 805.098 159.993, 808.642 148.925, 818.535 129 C 823.785 118.423, 836.254 88.036, 837.598 82.540 L 838.322 79.580 833.665 83.540 C 827.964 88.388, 804.418 112.931, 796.288 122.500 C 790.677 129.104, 782 141.222, 782 142.454 C 782 143.418, 771.234 165.257, 768.420 170 C 755.485 191.809, 741.393 208.351, 718.529 228.568 C 713.594 232.930, 707.694 238.188, 705.417 240.250 C 703.140 242.312, 700.768 244, 700.147 244 C 698.144 244, 700.843 229.924, 704.463 221.500 C 705.172 219.850, 707.494 214.472, 709.624 209.549 C 713.688 200.153, 725.723 180.929, 734.299 170.134 C 741.159 161.499, 756.384 148.118, 768.463 140.107 C 773.942 136.473, 780.017 131.905, 781.963 129.956 C 786.064 125.846, 799.283 111.661, 802.423 108 C 803.602 106.625, 807.878 102.026, 811.924 97.780 C 819.935 89.372, 820.043 89.482, 808 93.794 C 804.975 94.877, 791.552 100.551, 778.172 106.402 C 752.540 117.611, 736.983 122.911, 722.352 125.422 C 705.149 128.374, 684.623 130.244, 675 129.737 C 656.777 128.775, 657.443 127.143, 680.808 115.489 C 693.328 109.244, 704.070 104.741, 714.806 101.237 C 740.046 93, 739.873 93.029, 767.528 92.494 C 778.543 92.281, 789.118 91.845, 791.028 91.525 C 799.214 90.152, 811.120 86.588, 820.451 82.715 C 830.311 78.623, 830.727 78.312, 845.489 64.014 C 867.964 42.245, 874.728 36.098, 883.465 29.500 C 895.604 20.333, 895.262 20.786, 889.500 21.524 C 880.340 22.697, 856.897 29.640, 821 41.810 C 790.525 52.142, 777.368 54.766, 734.651 59.032 C 711.775 61.317, 701 60.975, 701 57.964 C 701 56.579, 714.909 48.379, 727.042 42.612 C 741.587 35.698, 758.456 30.566, 773.647 28.434 C 783.212 27.091, 788.299 26.936, 800 27.635 C 829.075 29.370, 840.043 28.552, 863.500 22.902 C 867.900 21.842, 877.898 19.879, 885.718 18.539 C 901.149 15.897, 901.016 15.946, 911.413 9.066 C 915.311 6.486, 920.075 3.399, 922 2.205 L 925.500 0.034 747.309 0.017 C 649.304 0.008, 568.911 0.337, 568.658 0.750 M 483 270.545 C 409.980 280.714, 348.494 325.728, 316.414 392.500 C 303.428 419.531, 297.520 444.645, 295.437 481.674 L 294.752 493.847 288.253 497.047 C 280.501 500.863, 274.678 506.405, 271.688 512.812 C 269.568 517.353, 269.491 518.761, 269.207 557.774 C 268.928 596.239, 269.010 598.402, 271.046 605.946 C 277.535 629.993, 298.527 647.413, 321 647.400 C 333.045 647.392, 340.320 642.234, 343.584 631.386 C 345.779 624.095, 345.659 512.583, 343.449 505.140 C 341.374 498.153, 337.694 494.268, 330.991 491.989 L 325.500 490.121 325.603 476.311 C 325.772 453.855, 331.421 432.729, 344.004 407.500 C 352.938 389.587, 361.510 377.625, 376.500 362.151 C 411.811 325.701, 455.170 306.034, 504 304.321 C 537.718 303.138, 565.472 308.999, 594.671 323.471 C 609.624 330.881, 617.263 335.677, 629.036 345.044 C 640.132 353.872, 657.929 372.384, 665.408 382.876 C 684.268 409.332, 698.492 448.338, 699.003 475 C 699.287 489.841, 699.156 491, 697.196 491 C 696.204 491, 693.048 492.169, 690.182 493.597 C 686.313 495.525, 684.266 497.392, 682.235 500.847 L 679.500 505.500 679.220 566.283 C 679.039 605.645, 679.303 628.410, 679.968 630.882 C 682.116 638.858, 688.214 644.886, 696.401 647.126 C 702.436 648.777, 713.767 646.786, 722.871 642.474 C 732.952 637.700, 743.280 627.365, 748.327 617 C 754.941 603.419, 755.122 601.759, 754.794 557.805 C 754.502 518.827, 754.480 518.456, 752.114 513.221 C 749.208 506.789, 742.343 500.380, 734.236 496.530 L 728.300 493.711 727.640 479.105 C 726.137 445.789, 719.976 419.523, 707.552 393.460 C 696.834 370.974, 682.153 349.566, 666.805 334.040 C 633.695 300.547, 595.161 280.348, 547.446 271.472 C 534.793 269.118, 497.132 268.576, 483 270.545 M 497.259 354.086 C 454.786 358.427, 415.627 382.767, 392.861 418.977 C 367.435 459.419, 365.423 516.904, 387.935 559.667 C 395.609 574.244, 401.861 581.422, 407.940 582.638 C 410.472 583.144, 411.525 582.675, 414.479 579.721 C 419.132 575.068, 418.975 572.551, 413.536 564.606 C 407.167 555.303, 403.415 547.446, 398.918 533.996 C 383.807 488.800, 393.888 442.483, 425.903 410.011 C 451.705 383.842, 487.549 370.602, 523 374.146 C 551.318 376.977, 576.586 388.781, 596.537 408.500 C 614.530 426.284, 625.172 446.819, 629.636 472.364 C 631.722 484.301, 630.970 507.729, 628.108 520 C 624.037 537.456, 616.144 555.732, 608.878 564.524 C 604.824 569.431, 603.861 574.004, 606.030 578.055 C 607.560 580.916, 612.682 583.229, 615.913 582.519 C 623.762 580.795, 638.053 557.888, 644.373 536.901 C 649.250 520.709, 650.442 511.860, 650.422 492 C 650.402 471.391, 648.752 460.961, 642.879 444.312 C 626.719 398.504, 584.882 363.453, 537 355.602 C 524.357 353.529, 508.590 352.928, 497.259 354.086 M 496.342 408.411 C 476.064 412.285, 459.881 421.165, 444.891 436.643 C 432.956 448.967, 425.336 462.400, 420.827 479.067 C 417.414 491.683, 417.604 510.818, 421.275 524.221 C 425.519 539.718, 432.011 551.188, 437.576 553.025 C 442.123 554.526, 445.936 552.654, 448.335 547.745 L 450.170 543.990 445.627 534.245 C 439.464 521.027, 437.927 514.608, 437.869 501.856 C 437.770 480.137, 445.749 462.771, 463.399 446.287 C 485.645 425.512, 516.496 420.614, 542.475 433.732 C 558.554 441.851, 570.442 454.195, 578.479 471.117 C 582.879 480.384, 584.965 489.994, 584.965 501 C 584.965 512.869, 582.809 522.012, 577.531 532.520 C 572.367 542.800, 571.917 546.629, 575.394 550.672 C 577.311 552.901, 578.631 553.455, 582.022 553.455 C 585.627 553.455, 586.694 552.937, 589.195 549.977 C 592.950 545.534, 599.286 532.249, 601.347 524.500 C 609.386 494.272, 601.119 460.773, 579.911 437.641 C 567.851 424.486, 550.895 414.138, 534.500 409.924 C 524.167 407.269, 506.074 406.551, 496.342 408.411 M 505.185 459.118 C 492.727 461.191, 481.276 469.973, 475.709 481.725 C 472.566 488.361, 472.493 488.835, 472.183 504.762 C 471.843 522.153, 472.892 528.628, 477.242 536 C 480.551 541.606, 487.102 547.959, 492.500 550.796 C 496.916 553.116, 498.902 553.467, 509.500 553.802 C 519.282 554.112, 522.472 553.841, 526.758 552.341 C 537.316 548.645, 546.561 538.549, 550.121 526.829 C 551.951 520.803, 552.161 518.014, 551.825 504.227 C 551.453 488.993, 551.342 488.296, 548.288 482 C 544.845 474.904, 537.850 467.208, 531.364 463.383 C 527.573 461.147, 515.581 457.897, 512 458.134 C 511.175 458.189, 508.108 458.632, 505.185 459.118 M 176.998 563.417 C 168.306 569.122, 151.928 590.240, 145.974 603.419 C 142.012 612.188, 139.308 622.640, 137.023 638.015 C 135.181 650.412, 131.907 665.629, 130.035 670.500 C 129.612 671.600, 128.757 674.525, 128.135 677 C 119.758 710.316, 117.054 719, 115.059 719 C 112.918 719, 110.161 705.396, 109.486 691.500 C 107.950 659.854, 100.578 634.730, 89.047 621.837 C 86.263 618.725, 85.042 617.924, 84.721 619 C 80.189 634.217, 78.431 650.346, 79.945 662.801 C 82.614 684.750, 89.098 698.478, 106.105 718.191 C 112.501 725.605, 113 726.520, 113 730.842 C 112.999 740.699, 108.148 760.476, 96.773 796.992 L 95.685 800.484 93.880 796.234 C 92.887 793.896, 91.547 789.175, 90.901 785.742 C 89.613 778.897, 86.683 767.304, 84.268 759.500 C 81.705 751.216, 70.545 728.919, 65.632 722.267 C 60.661 715.536, 55.452 711.252, 47.366 707.242 C 39.357 703.272, 38.585 704.075, 39.424 715.504 C 40.712 733.054, 44.998 744.114, 58.433 764.554 C 66.124 776.256, 73.173 784.046, 82.322 790.953 C 90.582 797.190, 92.424 801.615, 91.635 813.327 C 91.161 820.364, 90.089 825.137, 87.033 833.821 C 79.480 855.284, 68.494 878.730, 55.590 900.924 C 51.451 908.043, 49.302 912.702, 49.887 913.287 C 50.403 913.803, 51.276 913.948, 51.826 913.608 C 54.257 912.105, 66.468 890.681, 77.500 868.560 L 89.500 844.500 100.500 835.814 C 106.550 831.037, 112.261 827.100, 113.191 827.064 C 114.121 827.029, 115.120 826.615, 115.410 826.145 C 115.992 825.203, 124.927 822.197, 135 819.555 C 158.120 813.489, 181.810 800.367, 195.124 786.250 C 200.433 780.621, 211 766.217, 211 764.610 C 211 763.065, 203.160 761.934, 196.276 762.485 C 170.232 764.573, 154.028 775.102, 115.405 815.030 C 104.188 826.626, 92 837.047, 92 835.042 C 92 834.070, 95.195 822.393, 101.176 801.500 C 105.966 784.768, 110.334 771.967, 111.616 770.903 C 112.377 770.272, 113 769.126, 113 768.357 C 113 767.588, 116.798 761.852, 121.440 755.610 C 127.325 747.695, 131.183 743.506, 134.190 741.768 C 141.531 737.521, 149.080 733.494, 160 727.998 C 173.664 721.121, 178.958 717.830, 187.647 710.812 C 197.604 702.770, 211.982 684.919, 217.869 673.290 C 221.166 666.777, 221.026 666.631, 212.258 667.426 C 202.784 668.284, 194.399 671.651, 183.500 678.973 C 161.685 693.627, 149.769 704.983, 141.037 719.438 C 136.130 727.562, 121.051 745.099, 118.367 745.803 C 117.533 746.022, 117.623 744.076, 118.690 738.803 C 119.502 734.786, 120.189 730.825, 120.215 730 C 120.330 726.387, 124.041 708.972, 125.862 703.500 C 134.121 678.678, 140.037 666.529, 148.513 656.985 C 158.671 645.548, 168.353 627.912, 174.350 609.920 C 177.714 599.827, 182.115 579.059, 183.498 566.750 C 184.076 561.605, 183.952 561.006, 182.322 561.059 C 181.320 561.091, 178.924 562.152, 176.998 563.417 M 483.870 569.534 C 476.862 571.739, 469.933 576.890, 466.529 582.426 C 462.291 589.318, 462.555 594.602, 468.827 628.500 C 476.275 668.752, 475.981 667.721, 481.449 672.689 C 486.064 676.883, 494.132 680.594, 501.338 681.838 C 503.449 682.202, 505.136 682.837, 505.088 683.250 C 505.040 683.663, 505 690.750, 505 699 L 505 714 484.674 714 C 464.721 714, 464.309 714.042, 462.174 716.314 C 459.350 719.321, 459.304 724.845, 462.073 728.365 L 464.145 731 511.898 731 L 559.651 731 561.826 728.686 C 564.724 725.600, 564.817 718.817, 562 716 C 560.127 714.127, 558.667 714, 539 714 L 518 714 518 698.519 L 518 683.038 520.750 682.419 C 528.456 680.683, 531.842 679.611, 535.494 677.751 C 541.284 674.803, 545.920 671.055, 547.452 668.086 C 549.089 664.914, 561.172 599.253, 561.269 593 C 561.399 584.681, 554.327 575.318, 544.500 570.799 C 539.744 568.612, 538.253 568.490, 514 568.289 C 493.992 568.123, 487.503 568.391, 483.870 569.534 M 232 886 C 227.985 890.015, 229.994 896.533, 235.568 897.579 C 242.501 898.879, 246.759 890.941, 241.686 886.174 C 238.793 883.457, 234.618 883.382, 232 886 M 192.962 902.810 C 188.089 904.313, 186.245 911.102, 189.829 914.345 C 193.946 918.071, 202 915.012, 202 909.723 C 202 905.082, 197.285 901.476, 192.962 902.810 M 267.655 906.829 C 265.373 909.351, 265.555 914.288, 268.013 916.512 C 274.506 922.387, 284.177 913.177, 278 907 C 275.446 904.446, 269.894 904.355, 267.655 906.829 M 220 927 C 218.011 928.989, 217.363 933.500, 218.765 935.600 C 219.768 937.102, 223.516 939, 225.480 939 C 227.782 939, 232 934.471, 232 932 C 232 929.110, 227.623 925, 224.545 925 C 223.145 925, 221.100 925.900, 220 927 M 150.491 927.383 C 147.682 929.437, 147.927 935.713, 150.911 938.129 C 153.895 940.545, 156.104 940.493, 159.365 937.927 C 162.816 935.213, 163.030 929.835, 159.777 927.557 C 157.026 925.629, 152.992 925.554, 150.491 927.383 M 304.104 927.896 C 301.449 930.551, 301.304 936.060, 303.829 938.345 C 306.256 940.542, 311.283 940.450, 313.345 938.171 C 315.337 935.970, 315.531 929.685, 313.655 928.128 C 310.832 925.786, 306.324 925.676, 304.104 927.896 M 259.637 945.506 C 253.632 951.511, 261.381 961.256, 268.469 956.613 C 271.639 954.535, 272.042 948.253, 269.171 945.655 C 266.888 943.589, 261.636 943.507, 259.637 945.506 M 184 954 C 179.925 958.075, 182.808 966, 188.365 966 C 191.651 966, 196 962.333, 196 959.562 C 196 953.328, 188.260 949.740, 184 954 M 128.557 967.223 C 126.557 970.077, 126.563 974.420, 128.570 976.427 C 133.837 981.694, 142.082 977.201, 140.485 969.933 C 139.347 964.749, 131.533 962.974, 128.557 967.223 M 318.707 971.016 C 313.344 975.234, 316.413 983, 323.443 983 C 327.387 983, 330 980.183, 330 975.932 C 330 970.528, 323.130 967.537, 318.707 971.016 M 223.655 971.829 C 221.458 974.256, 221.550 979.283, 223.829 981.345 C 225.867 983.190, 230.176 983.511, 232.951 982.026 C 236.487 980.134, 236.272 973.217, 232.600 970.765 C 230.516 969.373, 225.318 969.991, 223.655 971.829 M 272.223 978.557 C 270.574 979.711, 270 981.117, 270 984 C 270 993.245, 282.954 993.322, 283.217 984.078 C 283.385 978.178, 277.198 975.071, 272.223 978.557" stroke="none" fill="black" fill-rule="evenodd"/>
	<path fill-opacity="0.388" d="M 156 334.542 C 140.478 338.742, 125.581 347.132, 109 361.011 C 98.915 369.454, 81.577 382.679, 75 386.946 C 56.312 399.071, 31.041 407.633, 8.250 409.560 L 0 410.258 0 527.629 C 0 633.916, 0.149 645, 1.579 645 C 4.934 645, 16.751 639.554, 21.928 635.622 C 30.966 628.759, 39.980 619.018, 46.563 609 C 51.656 601.249, 72 562.443, 72 560.478 C 72 559.039, 85.831 532.339, 91.239 523.337 C 103.627 502.718, 114.600 489.600, 141.715 463 C 188.528 417.074, 207.932 383.723, 203.994 355.955 C 202.388 344.637, 198.950 339.477, 190 334.950 C 182.894 331.356, 168.417 331.182, 156 334.542 M 678.470 568.500 C 678.470 602.050, 678.596 615.630, 678.750 598.678 C 678.903 581.726, 678.903 554.276, 678.749 537.678 C 678.595 521.080, 678.470 534.950, 678.470 568.500 M 345.469 568 C 345.469 600.725, 345.595 614.112, 345.749 597.750 C 345.904 581.387, 345.904 554.612, 345.749 538.250 C 345.595 521.887, 345.469 535.275, 345.469 568 M 564 722.500 C 564 725.667, 563.407 727.593, 562 729 C 560.056 730.944, 558.667 731, 512.434 731 C 481.113 731, 464.123 730.640, 462.684 729.945 C 460.574 728.926, 460.566 728.943, 462.441 730.445 C 464.136 731.803, 470.444 732, 512.237 732 L 560.091 732 562.545 729.545 C 564.432 727.659, 565 726.038, 565 722.545 C 565 720.045, 564.775 718, 564.500 718 C 564.225 718, 564 720.025, 564 722.500 M 0 904 L 0 1024 235.930 1024 L 471.860 1024 476.102 1016.250 C 484.362 1001.161, 493.754 988.385, 505.965 975.628 C 520.326 960.624, 535.555 949.902, 562.390 935.902 C 574.054 929.817, 574.309 929.226, 566 927.516 C 564.075 927.120, 557.093 925.053, 550.483 922.921 C 513.913 911.128, 493.046 897.408, 449.500 856.528 C 430.830 839, 425.906 834.684, 417.403 828.396 C 395.199 811.975, 373.391 802.050, 346.991 796.348 C 335.599 793.888, 332.520 793.644, 312 793.575 C 293.809 793.514, 287.681 793.859, 280 795.376 C 260.150 799.297, 243.175 805.006, 213.500 817.742 C 195.718 825.374, 179.820 830.496, 169.070 832.058 C 158.348 833.616, 136.677 832.691, 124.554 830.159 L 115.608 828.290 110.077 830.822 C 102.523 834.281, 89.871 844.144, 87.806 848.185 C 86.874 850.008, 82.002 859.825, 76.979 870 C 64.853 894.565, 53.316 914, 50.859 914 C 48.224 914, 48.552 911.523, 51.826 906.680 C 56.998 899.032, 73.319 867.480, 77.784 856.500 C 84.178 840.775, 86.132 835.656, 88.442 828.582 C 89.849 824.272, 91 820.008, 91 819.108 C 91 816.609, 55.636 797.673, 43.500 793.673 C 38.398 791.991, 3.518 784.008, 1.250 784.003 C 0.257 784.001, 0 808.665, 0 904 M 232.223 885.557 C 229.317 887.592, 229.198 893.198, 232 896 C 236.328 900.328, 244 897.132, 244 891 C 244 885.091, 237.305 881.997, 232.223 885.557 M 192 902.694 C 187.744 904.215, 186.541 911.370, 190.013 914.512 C 192.864 917.092, 197.880 916.867, 200.156 914.056 C 204.824 908.291, 199.008 900.189, 192 902.694 M 270.028 905.123 C 266.871 906.371, 266.034 907.737, 266.015 911.679 C 265.987 917.589, 272.138 920.774, 276.837 917.281 C 283.578 912.271, 277.845 902.033, 270.028 905.123 M 219.655 926.829 C 215.719 931.178, 219.042 939, 224.826 939 C 230.798 939, 234.173 931.173, 230 927 C 227.446 924.446, 221.894 924.355, 219.655 926.829 M 149.557 928.223 C 147.318 931.419, 147.636 934.727, 150.455 937.545 C 155.179 942.270, 162 939.380, 162 932.655 C 162 928.385, 159.393 926, 154.728 926 C 152.126 926, 150.677 926.623, 149.557 928.223 M 304.337 927.477 C 301.639 929.366, 300.621 933.414, 302.126 936.271 C 303.695 939.251, 304.933 939.969, 308.500 939.969 C 312.055 939.969, 313.306 939.250, 314.850 936.316 C 316.572 933.045, 316.261 931.170, 313.545 928.455 C 310.759 925.669, 307.424 925.314, 304.337 927.477 M 261.017 944.286 C 253.259 948.211, 258.575 960.294, 266.788 957.406 C 273.076 955.194, 273.055 946.261, 266.756 944.065 C 265.076 943.479, 263.656 943.007, 263.601 943.015 C 263.545 943.023, 262.382 943.595, 261.017 944.286 M 184.223 953.557 C 181.098 955.746, 181.098 962.254, 184.223 964.443 C 189.305 968.003, 196 964.909, 196 959 C 196 953.091, 189.305 949.997, 184.223 953.557 M 128.655 966.829 C 124.825 971.061, 128.015 979, 133.545 979 C 136.822 979, 141 974.822, 141 971.545 C 141 965.905, 132.448 962.637, 128.655 966.829 M 225.500 970.171 C 222.718 971.782, 222.031 973.036, 222.031 976.500 C 222.031 980.067, 222.749 981.305, 225.729 982.874 C 230.162 985.208, 236 981.522, 236 976.388 C 236 971.569, 229.615 967.788, 225.500 970.171 M 319.500 970.195 C 316.714 971.775, 316.033 973.026, 316.015 976.595 C 315.996 980.575, 318.706 983, 323.174 983 C 327.417 983, 330.006 980.500, 329.985 976.421 C 329.966 972.941, 329.232 971.684, 326.316 970.150 C 323.614 968.728, 322.070 968.738, 319.500 970.195 M 271.488 979.013 C 268.908 981.864, 269.133 986.880, 271.944 989.156 C 275.075 991.691, 278.625 991.465, 281.545 988.545 C 284.544 985.547, 284.649 983.095, 281.927 979.635 C 279.334 976.338, 274.187 976.031, 271.488 979.013" stroke="none" fill="black" fill-rule="evenodd"/>
</svg>